/* XPM */
static char *b8aa84fb125a4e82edfe9307eaec88db1lfmiPEcexNKoeDl[] = {
/* columns rows colors chars-per-pixel */
"64 64 58 1 ",
"  c #000000",
". c #0B0B04",
"X c #131304",
"o c #181705",
"O c #1B1A05",
"+ c #262504",
"@ c #2A2A04",
"# c #353405",
"$ c #3C3B05",
"% c #403F05",
"& c #434205",
"* c #4D4D05",
"= c #504E06",
"- c #535206",
"; c #5E5D05",
": c #605F05",
"> c #626105",
", c #6B6A05",
"< c #747305",
"1 c #7E7D05",
"2 c #807F05",
"3 c #8B8905",
"4 c #999705",
"5 c #9C9A05",
"6 c #A19F06",
"7 c #A5A305",
"8 c #AFAC05",
"9 c #B1AF05",
"0 c #B5B205",
"q c #BAB705",
"w c #BDBA05",
"e c #C1BE05",
"r c #C3C005",
"t c #C6C304",
"y c #C7C504",
"u c #C9C604",
"i c #CCC903",
"p c #CFCC03",
"a c #CBC804",
"s c #CDCB04",
"d c #CFCC04",
"f c #D0CD03",
"g c #D0CD04",
"h c #D5D203",
"j c #D7D503",
"k c #D8D703",
"l c #DBD801",
"z c #DEDB01",
"x c #DEDC01",
"c c #E1DE02",
"v c #E3E001",
"b c #E4E101",
"n c #E7E402",
"m c #EAE702",
"M c #EBE801",
"N c #EEEB01",
"B c #EFEC01",
"V c #F2EF00",
/* pixels */
"                      .............                             ",
"                  ...X+$*;,<<<,;*$+O...                         ",
"                .X+&,39uhzcvbvczku04,&+X.                       ",
"              .X#,5yxmNVVVVVVVVVVVNMci7<%O.                     ",
"            .X#1wzmBVVVVVVVVVVVVVVVVVVMce3&X.                   ",
"          ..@<wcNVVVVVVVVVVVVVVVVVVVVVVVBbt1#X.                 ",
"         .o-7zNVVVVVVVVVVVVVVVVVVVVVVVVVVVVc9:O.                ",
"        .+<tmVVVVVVVVVVVVVVVVVVVVVVVVVVVVVVVMi1@.               ",
"       .#3jBVVVVVVVVVVVVVVVVVVVVVVVVVVVVVVVVVBz4$.              ",
"      .#4cVVVVVVVVVVVVVVVVVVVVVVVVVVVVVVVVVVVVVb8&.             ",
"      X,hVVVVVVVVVVVVVVVVVVVVVVVVVVVVVVVVVVVVVVVn8&.            ",
"      .#4cVVVVVVVVVVVVVVVVVVVVVVVVVVVVVVVVVVVVVVVn8&.           ",
"       .#4zVVVVVVVVVVVVVVVVVVVVVVVVVVVVVVVVVVVVVVVb4@.          ",
"        .@3kVVVVVVVVVVVVVVVVVVVVVVVVVVVVVVVVVVVVVVVx3O.         ",
"         .+2jBVVVVVVVVVVVVBNNBVVVVVVVVVVVVVVVVVVVVVBf:X         ",
"          .+1hNVVVVVVVVVVnr66rbVVVVVVVVVVVVVVVVVVVVVM9#.        ",
"           .O<pNVVVVVVVVm7&OO&5nVVVVVVVVVVVVVVVVVVVVVc1X        ",
"            .O,iNVVVVVVVa*.  .&uBVVVVVVVVVVVVVVVVVVVVVt&.       ",
"             .O>tNVVVVVN8+    +8NVVVVVVVVVVVVVVVVVVVVVb3O       ",
"              .X:wNVVVVN0@    @0NVVVVVVVVVVVVVVVVVVVVVVt&.      ",
"               .X-qmVVVVh>o  o>jVVVVVVVVVVVVVVVVVVVVVVVc<X      ",
"                .X-9nVVVNe,$$,rBVVVVVVVVVVVVVVVVVVVVVVVN9+.     ",
"                 .X&8bVVVNzaazNVVVVVVVVVVVVVVVVVVVVVVVVVf*.     ",
"                   .&7vVVVVVBVVVVVVVVVVVVVVVVVVVVVVVVVVVv<X     ",
"                    .#4cVVVVVVVVVVVVVVVVVVVVVVVVVVVVVVVVM5O     ",
"                     .#4cVVVVVVVVVVVVVVVVVVVVVVVVVVVVVVVBw#.    ",
"                      .@3zVVVVVVVVVVVVVVVVVVVVVVVVVVVVVVVg&     ",
"                       .@3kVVVVVVVVVVVVVVVVVVVVVVVVVVVVVVl;.    ",
"                        .+1hBVVVVVVVVVVVVVVVVVVVVVVVVVVVVc,.    ",
"                         .O<dNVVVVVVVVVVVVVVVVVVVVVVVVVVVb<.    ",
"                          .O,gBVVVVVVVVVVVVVVVVVVVVVVVVVVb1X    ",
"                           .$0NVVVVVVVVVVVVVVVVVVVVVVVVVVn1X    ",
"                          .+3xVVVVVVVVVVVVVVVVVVVVVVVVVVVb1X    ",
"                         .O<jVVVVVVVVVVVVVVVVVVVVVVVVVVVVv<.    ",
"                        .O,pNVVVVVVVVVVVVVVVVVVVVVVVVVVVVz:.    ",
"                       .X>iNVVVVVVVVVVVVVVVVVVVVVVVVVVVVVk*.    ",
"                       X-eNVVVVVVVVVVVVVVVVVVVVVVVVVVVVVVu$     ",
"                      .&qmVVVVVVVVVVVVVVVVVVVVVVVVVVVVVVN9+     ",
"                     .&8mVVVVVVVVVVVVVVVVVVVVVVVVVVVVVVVm3X     ",
"                    .#7bVVVVVVVVVVVVVVVVVVVVVVVVVVVVVVVVx,.     ",
"                   .@4vVVVVVVVVVVVVVVVVVVVVVVVVVVVVVVVVBy&.     ",
"                  .+3zVVVVVVVVVVVVVVVVVVVVVVVVVVVVVVVVVm5+      ",
"                 .O1jVVVVVVVVVVVVVVVVVVVVVVVVVVVVVVVVVVz,X      ",
"                .O<hNVVVVVVVVVVVVVVVVVVVVVVVVVVVVVVVVVN0#       ",
"               .X>iNVVVVVVVVVVVVVVVVVVVVVVVVVVVVVVVVVVx<X       ",
"              .X-rNVVVVVVVVVVVVVVVVVVVVVVVVVVVVVVVVVVN9#.       ",
"              X-qNVVVVVVVVVVVVVVVVVVVVVVVVVVVVVVVVVVVj,X        ",
"             .&9mVVVVVVVVVVVVVVVVVVVVVVVVVVVVVVVVVVVn4+.        ",
"            .#7bVVVVVVVVVVVVVVVVVVVVVVVVVVVVVVVVVVVNw&.         ",
"           .@4bVVVVVVVVVVVVVVVVVVVVVVVVVVVVVVVVVVVVd>X          ",
"          .+3cVVVVVVVVVVVVVVVVVVVVVVVVVVVVVVVVVVVVl1O.          ",
"         .O1lVVVVVVVVVVVVVVVVVVVVVVVVVVVVVVVVVVVVz3+.           ",
"        .O<hVVVVVVVVVVVVVVVVVVVVVVVVVVVVVVVVVVVVz3@.            ",
"        .-uBVVVVVVVVVVVVVVVVVVVVVVVVVVVVVVVVVVBj3@.             ",
"        .-wmVVVVVVVVVVVVVVVVVVVVVVVVVVVVVVVVVMa<+.              ",
"        .X-7xVVVVVVVVVVVVVVVVVVVVVVVVVVVVVVVv8-o.               ",
"         ..#1tmVVVVVVVVVVVVVVVVVVVVVVVVVVVms3#..                ",
"           .X&4pnVVVVVVVVVVVVVVVVVVVVVVVmf4-O.                  ",
"             .O=3tcNVVVVVVVVVVVVVVVVBMcy4-+..                   ",
"              ..O&<7ulbMNBBVVVNBNNmzu7<%O..                     ",
"                 .X+$;140eufffue073>%+X.                        ",
"                   ...XO+#$%&$$#+OX...                          ",
"                        . ..... .                               ",
"                                                                "
};
