/* XPM */
static char *a789923ab5a74c5da153ce96ea885d56aT6s8yR1Wnx3M9iv[] = {
/* columns rows colors chars-per-pixel */
"64 64 21 1 ",
"  c black",
". c #040405",
"X c #101004",
"o c #1F1F05",
"O c #2F2E05",
"+ c #424106",
"@ c #575606",
"# c #656407",
"$ c #737107",
"% c #807F07",
"& c #929007",
"* c #A7A507",
"= c #B5B307",
"- c #C5C206",
"; c #D4D106",
": c #DEDB05",
"> c #E7E404",
", c #EEEC03",
"< c #F2EF00",
"1 c #F4F101",
"2 c #F6F301",
/* pixels */
"                            .....     .....                     ",
"                         ....XO+@#$$$#@+OX....                  ",
"                      ...XO#*-:,<11111<>:-&#OX...               ",
"                    ...O$=>1111<<<<<<<<<111<:*#o...             ",
"                   ..O&;11<<<<<<<<<<<<<<<<<<<1<;%o..            ",
"                 ..o%:11<<<<<<<<<<<<<<<<<<<<<<<<1;$X..          ",
"                ..@-11<<<<<<<<<<<<<<<<<<<<<<<<<<<1<=+..         ",
"              ..X%>1<<<<<<<<<<<<<<<<<<<<<<<<<<<<<<<1:$X.        ",
"             ..o*1<<<<<<<<<<<<<<<<<<<<<<<<<<<<<<<<<<1,&o.       ",
"            ..O-1<<<<<<<<<<<<<<<<<<<<<<<<<<<<<<<<<<<<11*o..     ",
"           ..O-1<<<<<<<<<<<<<<<<<<<<<<<<<<<<<<<<<<<<<<<1%..     ",
"            O-1<<<<<<<<<<<<<<<<<<<<<<<<<<<<<<<<<<<<<<<1*o..     ",
"          .X*1<<<<<<<<<<<<<<<<<<<<<<<<<<<<<<<<<<<<<<<<*o.       ",
"         ..&1<<<<<<<<<<<<<<<<<<<<<<<<<<<<<<<<<<<<<<1,&X.        ",
"        ..@><<<<<<<<<<<<<<<<<<<<<<1111<<<<<<<<<<<<<,%X.         ",
"        .o-1<<<<<<<<<<<<<<<<<<<<<1;**;1<<<<<<<<<<<,%X.          ",
"       ..%1<<<<<<<<<<<<<<<<<<<<<1*O..O=1<<<<<<<<1>$..           ",
"       .O:1<<<<<<<<<<<<<<<<<<<<<:O    O:1<<<<<<<>#..            ",
"      ..&1<<<<<<<<<<<<<<<<<<<<<1=X    X=1<<<<<1:@..             ",
"      .O:1<<<<<<<<<<<<<<<<<<<<<1-X    X-1<<<<1;@..              ",
"      .$1<<<<<<<<<<<<<<<<<<<<<<<>@    @><<<<1;+..               ",
"     .X-1<<<<<<<<<<<<<<<<<<<<<<<1;#oo#;1<<<1-+..                ",
"     .+><<<<<<<<<<<<<<<<<<<<<<<<<1,::,1<<<1-O..                 ",
"     .$1<<<<<<<<<<<<<<<<<<<<<<<<<<<<1<<<<1=O..                  ",
"    ..*1<<<<<<<<<<<<<<<<<<<<<<<<<<<<<<<<1*o..                   ",
"    .o;1<<<<<<<<<<<<<<<<<<<<<<<<<<<<<<11*o.                     ",
"     O>1<<<<<<<<<<<<<<<<<<<<<<<<<<<<<1<&X.                      ",
"     @,<<<<<<<<<<<<<<<<<<<<<<<<<<<<<1,&X.                       ",
"     #1<<<<<<<<<<<<<<<<<<<<<<<<<<<<1,%X.                        ",
"     $1<<<<<<<<<<<<<<<<<<<<<<<<<<<1>$..                         ",
"     %1<<<<<<<<<<<<<<<<<<<<<<<<<<<:#..                          ",
"    .%1<<<<<<<<<<<<<<<<<<<<<<<<<<1=X.                           ",
"     %1<<<<<<<<<<<<<<<<<<<<<<<<<<<<&X.                          ",
"     $1<<<<<<<<<<<<<<<<<<<<<<<<<<<<,$..                         ",
"     @<<<<<<<<<<<<<<<<<<<<<<<<<<<<<<>#..                        ",
"    .+,<<<<<<<<<<<<<<<<<<<<<<<<<<<<<1>@..                       ",
"     O:1<<<<<<<<<<<<<<<<<<<<<<<<<<<<<<:+..                      ",
"     X-1<<<<<<<<<<<<<<<<<<<<<<<<<<<<<<<;O..                     ",
"    ..&1<<<<<<<<<<<<<<<<<<<<<<<<<<<<<<<1-O.                     ",
"     .#<<<<<<<<<<<<<<<<<<<<<<<<<<<<<<<<<1=o.                    ",
"     .O:<<<<<<<<<<<<<<<<<<<<<<<<<<<<<<<<<1*X.                   ",
"      X*1<<<<<<<<<<<<<<<<<<<<<<<<<<<<<<<<<<&X.                  ",
"      .#<<<<<<<<<<<<<<<<<<<<<<<<<<<<<<<<<<1,%..                 ",
"       o-1<<<<<<<<<<<<<<<<<<<<<<<<<<<<<<<<<<,$..                ",
"      ..$1<<<<<<<<<<<<<<<<<<<<<<<<<<<<<<<<<<<>@..               ",
"       .o-1<<<<<<<<<<<<<<<<<<<<<<<<<<<<<<<<<<1:+..              ",
"       ..#,1<<<<<<<<<<<<<<<<<<<<<<<<<<<<<<<<<<1;+..             ",
"        .X*1<<<<<<<<<<<<<<<<<<<<<<<<<<<<<<<<<<<1-O.             ",
"         .O;1<<<<<<<<<<<<<<<<<<<<<<<<<<<<<<<<<<<1=o.            ",
"         ..@>1<<<<<<<<<<<<<<<<<<<<<<<<<<<<<<<<<<<1*X.           ",
"          ..%<<<<<<<<<<<<<<<<<<<<<<<<<<<<<<<<<<<<<1&X.          ",
"           .X&<1<<<<<<<<<<<<<<<<<<<<<<<<<<<<<<<<<<1<%..         ",
"            .X&<<<<<<<<<<<<<<<<<<<<<<<<<<<<<<<<<<<<1,$..        ",
"             .X&,1<<<<<<<<<<<<<<<<<<<<<<<<<<<<<<<<<<1>@..       ",
"              .X$>1<<<<<<<<<<<<<<<<<<<<<<<<<<<<<<<<<1:@..       ",
"               ..+-11<<<<<<<<<<<<<<<<<<<<<<<<<<<<<11=+..        ",
"                ..o&>1<<<<<<<<<<<<<<<<<<<<<<<<<<<1:%o..         ",
"                 ...+*>11<<<<<<<<<<<<<<<<<<<<<11>*O..           ",
"                   ..X+*:11<<<<<<<<<<<<<<<<111:&+...            ",
"                     ...O$=:<1111<<<<<1111,:=$O...              ",
"                       ...XO@&=-;:>>>:;-*%@OX...                ",
"                          .. ..XoOOOOOoX.. ..                   ",
"                              .. ..... ..                       ",
"                                                                "
};
