/* XPM */
static char *ad7041ddb6ed43f3f1a40749c3f0b0b0LFm4dZj5RfAkoWUc[] = {
/* columns rows colors chars-per-pixel */
"64 64 194 2 ",
"   c None",
".  c #050400",
"X  c #0B0500",
"o  c #060A00",
"O  c #0C0A00",
"+  c #100700",
"@  c #130C00",
"#  c #141100",
"$  c #1D1600",
"%  c #1C1D00",
"&  c #231D00",
"*  c #281F00",
"=  c #252200",
"-  c #292400",
";  c #2C2A01",
":  c #262900",
">  c #322E01",
",  c #332C0B",
"<  c #2F310C",
"1  c #333102",
"2  c #3C3C00",
"3  c #383407",
"4  c #3C3A19",
"5  c #393220",
"6  c #413C00",
"7  c #453C1A",
"8  c #3D4100",
"9  c #444200",
"0  c #4E4C00",
"q  c #494300",
"w  c #514D00",
"e  c #545301",
"r  c #5A5400",
"t  c #5E5C00",
"y  c #565900",
"u  c #5D6100",
"i  c #656202",
"p  c #606A00",
"a  c #6D6D02",
"s  c #6A6708",
"d  c #716B05",
"f  c #736F0C",
"g  c #6F7100",
"h  c #737200",
"j  c #737B00",
"k  c #7B7C00",
"l  c #7B7914",
"z  c #49422C",
"x  c #454127",
"c  c #494236",
"v  c #554E36",
"b  c #5C5643",
"n  c #65624B",
"m  c #6D6449",
"M  c #75754C",
"N  c #777154",
"B  c #787065",
"V  c #817E00",
"C  c #837F64",
"Z  c #7E8300",
"A  c #818101",
"S  c #858A05",
"D  c #8A8C0D",
"F  c #9A9E0B",
"G  c #848315",
"H  c #8A8C1B",
"J  c #8C8916",
"K  c #8A9314",
"L  c #9A9517",
"P  c #A09E00",
"I  c #A0990B",
"U  c #9AA113",
"Y  c #ACAD09",
"T  c #A5A41C",
"R  c #A7A819",
"E  c #BFBD10",
"W  c #B1B61A",
"Q  c #BABF1B",
"!  c #968D24",
"~  c #9C9926",
"^  c #979625",
"/  c #A49E26",
"(  c #AAA724",
")  c #AFB12A",
"_  c #B3B324",
"`  c #B8B626",
"'  c #A6A531",
"]  c #ACAB35",
"[  c #B7B635",
"{  c #C0BB2B",
"}  c #C0BC3F",
"|  c #DCE609",
" . c #E5E501",
".. c #EBE601",
"X. c #E5EA01",
"o. c #EDEC01",
"O. c #E5E70C",
"+. c #EAE70C",
"@. c #E7EA0D",
"#. c #EBED0C",
"$. c #F2EE03",
"%. c #F8EE01",
"&. c #F2ED0B",
"*. c #F8EC0A",
"=. c #EDF201",
"-. c #ECF30D",
";. c #E6F003",
":. c #F1F101",
">. c #FAF404",
",. c #F4FA05",
"<. c #FBF903",
"1. c #F4F20B",
"2. c #FAF50A",
"3. c #F8F90D",
"4. c #E6EB12",
"5. c #EDED13",
"6. c #ECEB1A",
"7. c #E6E417",
"8. c #F1E711",
"9. c #F1EC13",
"0. c #F8EC14",
"q. c #F3EF19",
"w. c #EEF213",
"e. c #ECF11A",
"r. c #F2F414",
"t. c #FCFB12",
"y. c #F2F41B",
"u. c #F2F91C",
"i. c #F8F619",
"p. c #C8CB2F",
"a. c #D7DF27",
"s. c #D6D82D",
"d. c #C3C435",
"f. c #D1CF3C",
"g. c #D1D33D",
"h. c #D9DE3D",
"j. c #D3D636",
"k. c #DFE239",
"l. c #E6E62C",
"z. c #F1EC21",
"x. c #EEF121",
"c. c #EEF32A",
"v. c #F4F425",
"b. c #F4FA24",
"n. c #FCFC22",
"m. c #F4F52A",
"M. c #F5FA2D",
"N. c #FAFC2C",
"B. c #F8F52A",
"V. c #ECEF30",
"C. c #E5E43B",
"Z. c #EAEF3C",
"A. c #E1E836",
"S. c #EEF43B",
"D. c #F4F534",
"F. c #FAF533",
"G. c #F6FB33",
"H. c #F8FD35",
"J. c #FBFC35",
"K. c #F4F63A",
"L. c #F9F53B",
"P. c #F5FA3B",
"I. c #F9FB3B",
"U. c #9FA14D",
"Y. c #A5A158",
"T. c #888274",
"R. c #C0BF41",
"E. c #C6C747",
"W. c #CAC645",
"Q. c #CDC948",
"!. c #D5D748",
"~. c #DCDB45",
"^. c #DADA54",
"/. c #E0DE4B",
"(. c #DDE047",
"). c #ECED4C",
"_. c #E9EB46",
"`. c #F7EF4F",
"'. c #EAF243",
"]. c #EEF14C",
"[. c #F4F344",
"{. c #FAF743",
"}. c #F5FA42",
"|. c #FBFB43",
" X c #F3F24B",
".X c #FDFD4E",
"XX c #F5F64C",
"oX c #EAE655",
"OX c #F3EC55",
"+X c #F4F553",
"@X c #FAF851",
"#X c #F7FA63",
"$X c #969B82",
"%X c #A19997",
/* pixels */
"                                                                  5 * = -                                                       ",
"                                                        = O O = 2 e s f a i 0 3 - O O 1                                         ",
"                                                  # O 8 j W A.S.K.I.J.M.M.J.J.K.S.s.Y a 1 X &                                   ",
"                                              X - J !. XI.u.;.=.;.X.X.=.=.o.o.:.o.1.n.D. XW.d $ X m                             ",
"                                          O 9 W P.v.y.r.#.=.:.=.$.:.:.:.:.:.$.$.1.$.o.&.5.m.I.C.I @ X                           ",
"                                      O : ) S.N.o.o.=.o.o.$.:.:.$.$.:.$.$.$.&.$.$.2.$.$.:.o.1.9.F.`.! X ;                       ",
"                                    O g '.M.w.o.$.1.:.$.:.:.$.1.1.$.o.:.$.$.$.>.>. .o.>.o.o.2...9.7.K.h.0 .                     ",
"                                = @ ) |.-.;.:.o.&.&.$.$.$.$.&.&.:.:.:.:.:.$.$.o.$.>.>...:.:. .2.&.1.o.e.+XH X n                 ",
"                              O ; k.I.O.=.:.:.&.&.*.$.$.:.:.:.:.=.=.=.,.o.1.$.:.:.:.:.:.:.=.=.:.$.$.:.o.5.K.` O 4               ",
"                              8 Z.u.X.1.:.o.$.o.&.&.$.$.:.:.:.=.:.=.o.=.:.o.o.o.:.:.:.:.:.:.:.:.>.o...:.o.#.|.W.@ c             ",
"                            2 '.b.o.o.:.o.>.:.:.:.:.$.:.:.=.=.=...1.t...o.o.,.:.:.:.$.$.$.:.:.:.;.=.:.:.$.&.7.OXY.X             ",
"                          * ).b.X.:.>.o.:.:. .:.:.:.:.:.$.=.=.=.1.o.o.o.,.:.$.:.:.:.$.$.$.$.:.:.,.=.>.o...r.|.( O               ",
"                        O /.v.X.:.o.$.$.:.:.,.,.:.:.&.&.&.$.:.:.o.>.$.1.$.:.o.o.:.:.$.$.$.$.:.:.o.:.o.:.1.K.~ O                 ",
"                        _ D.1.:.$.>.2.>.o.o.,...:.:.&.&.&.$.:.:.:.:.o.&. .&.>.,.:.:.$.$.$.$.:.:.o.2.:.#.G.F X                   ",
"                      a P.r. .$.:.$.o.o.2.o.:.,.:.:.:.:.:.$.:.:.,...1.n.n.i.1...:.:.:.:.:.:.$.$.>. .9.K.D O                     ",
"                    : +X4.:.$.$.$.$.2.o.:.:.:.o.:.:.:.:.:.:.:.:.=.u.l.P V Y V.e.=.=.:.:.&.&.$.:.$.5.I.k O                       ",
"                    { m.o.:.:.:.:.:.:.:.:.:.:.:.:.:.:.:.:.:.$.=.-.a.2 X O o u '.4.,.:.$.8.0.:.:.-.S.h X                         ",
"                  6 [.&.>.o.=.=.=.:.:.:.:.:.:.:.:.:.:.:.:.:.$.#.b.Z X X . . o U N...:.2.0.8.o.@.S.p .                           ",
"                  ] L.&.:.$.,.o.:.:.:.:.:.:.:.:.:.:.:.:.:.:.$.#.D.9 O . . . . u M.:.$.$.$.1.r.}.e .                             ",
"                ; #X7.1.$.:.:.=.:.:.:.:.:.:.:.:.:.:.:.:.:.:.$.#.D.a O @ + O O A N.o.$.>...e.Z.8 .                               ",
"                S P.5.o.:.:...,.:.:.:.:.:.:.:.:.:.:.:.:.:.:.$.o.i.E @ X X X ; s.v.o.:.>.y._.2 #                                 ",
"                j.e.1.:.:.$.:.:.:.:.:.:.:.:.:.:.:.:.:.:.:.:.$.o.o.m.` r & e p.G.+.t. .v._.; &                                   ",
"              2 P.=...2.$.$.>.o.:.:.:.:.:.:.:.:.:.:.:.:.:.:.$.o.=.1.y.B.m.m.v.+.o...J.~.- $                                     ",
"              l H.X.>.$.$.>.o.:.:.:.:.:.:.:.:.:.:.:.:.:.:.:.$.=.=.=.;.=...>.o.1.#.M.g.&                                         ",
"              R.v.:.$.$.:.$.$.:.:.:.:.:.:.:.:.:.:.:.:.:.:.:.:.:.;.=.:...>.1. .q.P.d.O                                           ",
"              ~.y.:.$.$.:.$.:.:.:.:.:.:.:.:.:.:.:.:.:.:.:.:.:.:.,.;.o.2.$.+.q.L.d.O                                             ",
"            > XX5.$.$.$.:.:.:.:.:.:.:.:.:.:.:.:.:.:.:.:.:.:.:.:.o.X.:.o.$.9.{.[ O                                               ",
"            0 {.5.$.$.:.:.$.:.:.:.:.:.:.:.:.:.:.:.:.:.:.:.:.:.:.o.2.:.>.X.L.R O                                                 ",
"            i K.5.$.:.:.=.=.:.:.:.:.:.:.:.:.:.:.:.:.:.:.:.:.:.$.&.o.o.X..XT O                                                   ",
"            h G.8.$.:.:.=.=.:.$.:.:.:.:.:.:.:.:.:.:.:.:.:.:.:.$.&.&.1.H.S o                                                     ",
"            k J.&.$.:.:.=.=.:.$.:.:.:.:.:.:.:.:.:.:.:.:.:.:.:.$.%.&.m.Z o $X                                                    ",
"            A F.&.$.:.=.=.:.:.:.:.:.:.:.:.:.:.:.:.:.:.:.:.:.:.$.%.*.v.y o                                                       ",
"            h F.&.$.:.=.=.=.:.:.:.:.:.:.:.:.:.:.:.:.:.:.:.:.:.$.%.%.o.{.6 O                                                     ",
"            t |.8.$.:.:.=.=.:.:.:.:.:.:.:.:.:.:.:.:.:.:.:.:.:.$.$.$.o.v.oX; ,                                                   ",
"            0 @X9.$.:.:.=.=.=.:.:.:.:.:.:.:.:.:.:.:.:.:.:.:.:.:.>.1.o.5.m.f.O x                                                 ",
"            6 OX6.$.:.:.:.o.$.:.:.:.:.:.:.:.:.:.:.:.:.:.:.:.:.:.o.1.o.&.=.m.Q.X                                                 ",
"              oXz.$.:.:.$.o.$.:.:.:.:.:.:.:.:.:.:.:.:.:.:.:.:.:.,.X.>.>.o.#.G.` O                                               ",
"              Q.v.:.$.:.:.$.$.$.:.:.:.:.:.:.:.:.:.:.:.:.:.:.:.:.=.=.:.o.:.$. .I.^ .                                             ",
"              J m.:.o.$.:.$.$.$.:.:.:.:.:.:.:.:.:.:.:.:.:.:.:.:.o.=.o.<.$.2.:.@.P.Z @                                           ",
"              w G.:.o.$.:.:.$.$.:.:.:.:.:.:.:.:.:.:.:.:.:.:.:.:.=.=.:.o.$.$.>.o.o.|.r X                                         ",
"              # A.3.o.o.:.:.$.:.:.:.:.:.:.:.:.:.:.:.:.:.:.:.:.:.:.:.:.:.:.:.$.$.o.5.I.e O                                       ",
"                R b.#.2.o.:.o.:.:.:.:.:.:.:.:.:.:.:.:.:.:.:.:.:.$.$.$.:.=.:.$.$.$.$.o.K.; #                                     ",
"                2 @X5...:.:.=.:.:.:.:.:.:.:.:.:.:.:.:.:.:.:.:.$.&.&.:.=.=.=.:.$.o.2.$.y.C.% 4                                   ",
"                  E.x.:.$.:.:.=.:.:.:.:.:.:.:.:.:.:.:.:.:.:.:.$.&.&.:.=.=.=.=.:.>...>.o.N.h.X b                                 ",
"                  0 |. .$.o.,.=.:.:.:.:.:.:.:.:.:.:.:.:.:.:.:.$.$.$.:.:.=.=.:.:.:.$.$.$.@.K.[ O M                               ",
"                    f.B.i.:.o.o.:.:.:.:.:.:.:.:.:.:.:.:.:.:.:.:.$.$.$.:.:.:.:.:.>. .>.>. .y.|.T o                               ",
"                    6  X+.:.;.,.:.:.:.:.:.:.:.:.:.:.:.:.:.:.:.:.:.:.$.$.:.:.:.:.o.3.$.$.o.o.o.I.K o                             ",
"                      L J.=.=.o.:.:.:.:.:.:.:.:.:.:.:.:.:.:.:.:.:.:.:.$.$.$.:.:.:.o.$.>.$.:.$.#.'.j o                           ",
"                      O h.y.o.:.:.$.,.:.:.o.o.:.:.:.:.$.$.$.:.:.:.:.:.$.$.$.$.$.$.$.:.:.$.$.$.$.#.S.i X                         ",
"                      < : ].4.:.$.$.o.:.o.o.,.,.:.:.:.$.$.$.:.:.:.:.:.$.$.$.$.$.$.:.:.:.:.$.$.$.:.r. X6 X                       ",
"                        @ 0 .X@.o.1.1.1.o.<.$...:.$.&.&.:.:.:.:.:.$.:.:.:.:.:.:.:.:.:.:.:.:.:.:.$.o.6.).>                       ",
"                          O h {.6. .1.o.:. .,.>.$.$.&.$.:.:.=.=.:.$.$.:.:.:.:.:.:.$.$.$.:.:.:.:.%.$.2.c.^.#                     ",
"                            X h K.r.o.1.:.>.>. .$.$.$.:.:.:.=.=.:.:.:.:.:.:.:.:.:.:.$.$.:.:.:.:.>...>.w.M.p.O                   ",
"                              O t K.x.#.=.o.:.>.$.$.$.:.:.:.:.:.:.$.:.:.:.:.:.:.:.:.:.:.:.:.:.$.>.%.:.X.| XXU.                  ",
"                                O 9 (.c.-.;.o.>.&.&.$.$.:.:.:.:.:.$.$.:.:.:.$.:.:.:.:.:.$.$.:.$.$...:.-.K.[ #                   ",
"                                  - O R K.u.X.o.$.$.$.$.$.:.:.:.$.$.$.:.$.$.$.$.:.:.:.:.:.:.:.:.1.5.m.'.A O                     ",
"                                    n X e g.H.-.=.=.1.1.&.2...:.$.>.:.$.$.:.:.$.:.o.:.$.:.=. .=.b.{.[ = O                       ",
"                                        = O h s.G.v.6.6.+.o.,.:.:.$.$.:.:.:.:.:.$.>.o.#.+.5.N.D.Q e X z                         ",
"                                            $ + i } +XI.b.w.1. .;.o.o.=.=.o.o.o.o.=.r.m. XoX/ q O >                             ",
"                                                * O ; h ` k.[.{.G.H.J.G.G.J.J.G.G.S.j.R i $ O 7                                 ",
"                                                    N = + X * w d G ~ ' ' ^ G f w - X # 3 C                                     ",
"                                                          %XB z ; % # O O @ & , v T.                                            ",
"                                                                                                                                ",
"                                                                                                                                "
};
