/* XPM */
static char *bf1270c3b3a74094ca98003dbaaaa0e2UlySDnjlyn0WWtt1[] = {
/* columns rows colors chars-per-pixel */
"64 64 8 1 ",
"  c #0186FC",
". c #0186FC",
"X c #0186FC",
"o c #0186FC",
"O c #0186FC",
"+ c #0089FD",
"@ c #0088FE",
"# c #008AFF",
/* pixels */
"                                                                ",
"                                                                ",
"                                                                ",
"                                                                ",
"                                                                ",
"                                                                ",
"                                                                ",
"                                                                ",
"                                                                ",
"                                                                ",
"        o       o o         ooo        oo o             o       ",
"                                                                ",
"################################################################",
"OOOOOOOOOOOOOOOOOOOOOOOOOOOOOOOOOOOOOOOOOOOOOOOOOOOOOOOOOOOOOOOO",
"################################################################",
"################################################################",
"####OOO#OO####OO#######OOO####OOOOOOO###OOOO########OOOOOO####OO",
"####OOO#OO###OOO######OOOO####OOO#OO####OOOO########OOO#OOO###OO",
"#O##OO##OO####OOO#######O#####OO##############OOOO##O###OO####OO",
"OO######OO####O#O#############OO############OOOOOO#######O####OO",
"OOO#############OO########################O###OOOO##############",
"OO##############OO####OO########OO########OO####OO##############",
"####O#OO#######OOO###OOO##O#OO##OOO###O##OOO##########OOO#######",
"####OOOOO######OOO####OO##OOOOO#OOO###OO##OO########OOOOO######O",
"########O#####OO###O############OO####OO##OO##################OO",
"########OO####OO###O####OO######OO####OO###O####O#######OO####OO",
"OOOOOO##OO#####O##OO####OOO#OO#OOO#####O##OO####OOO#OO##OOO####O",
"OOOOOOO#OOO####O##OOOO##OOO#OOOOOO########OOO###OOOOOOOOOOO###OO",
"#OOOO##############OOOO###OOO###############OOOO##OOO###########",
"#OOOOO############OOOOOO##OO##############OOOOOO#OOOO#######O###",
"##OO######OOOO####OO#O####OO######OO#O###OOO######OO######OOOO##",
"##########OOOO###OOO######OO#####OOOOO###OOO######O########OOO##",
"####OOO###OOOOOO###OOO######OO######OOOOO###OOOO###OOO######OO##",
"####OOOO####OO######OO####OOOO######O#OO####OOOO####OO####OOOO##",
"OO#O#O##############O####OOOOO##OO##################O####OOOOO##",
"OOOO################OO###OOOOO##OOO#################OO###OOOOO##",
"O###OO#########OOOOO##OO##OOOO##OO##############OOOO##OO##OOOO##",
"####OO########OOOOOO#OOO##O#OO###O##OO########O#OOOO#OOO##O#OO##",
"####OO##OO####OO######OO####O#######OOO#####OOOO######OO####O###",
"####OO##OO###OOO######O#############OOO#OO###OOO######O#########",
"####OO##OO###OOOOOOOOO##OOOO###O####O###OO#####OOOOOOO##OOOO###O",
"####OO##OO####OO##OO####OOO####O####O###OO####OO##OO####OOO####O",
"####OO########OO########O#####OO####OO##O#####OO########O#####OO",
"O###OO#########O##############OO##OOOO##O####OOO##############OO",
"OOOO############O##############O#OOOO###########O##############O",
"OO#O#O##########OO############OOOOOOOO##########OO############OO",
"####OOOO####OO##OO####OOOO########O#OO####OOOO##OO####OOOO######",
"####OOO###OOOOOOOOO###OOOO##########OOO###OOOO##OOO###OOOO######",
"################################################################",
"################################################################",
"OOOOOOOOOOOOOOOOOOOOOOOOOOOOOOOOOOOOOOOOOOOOOOOOOOOOOOOOOOOOOOOO",
"################################################################",
"                                                                ",
"o        ooo    o        ooo    o        ooo    o        ooo    ",
"                                                                ",
"                                                                ",
"                                                                ",
"                                                                ",
"                                                                ",
"                                                                ",
"                                                                ",
"                                                                ",
"                                                                ",
"                                                                "
};
