/* XPM */
static char *result[] = {
/* columns rows colors chars-per-pixel */
"64 64 44 1 ",
"  c red",
". c #FE0707",
"X c #EF0210",
"o c #E5031A",
"O c #EF0E1A",
"+ c #FD1111",
"@ c #FC1A19",
"# c #FA2323",
"$ c #F83434",
"% c #890E74",
"& c #F64242",
"* c #F24E50",
"= c #F25C5C",
"- c #F06969",
"; c #781084",
": c #4316B8",
"> c #1919DF",
", c #3717C4",
"< c #3521CE",
"1 c #3130DE",
"2 c #3A3ADF",
"3 c #191AE0",
"4 c #181BE1",
"5 c #4E4EDF",
"6 c #7777DF",
"7 c #8769C5",
"8 c #E28F97",
"9 c #E99B9B",
"0 c #E7AAAA",
"q c #8383DF",
"w c #8888DF",
"e c #A8A8DF",
"r c #CECEDF",
"t c #DFDEDE",
"y c #DFDFDF",
"u c #E4C5C5",
"i c #E2CCCC",
"p c #E1D2D2",
"a c #E2D3D3",
"s c #E0D9DA",
"d c #C8C8E0",
"f c #DFE3E3",
"g c #E1E1E0",
"h c None",
/* pixels */
"hhhhhhhhhhhhhhhhhhhhhhhhhhhhhhhhhhhhhhhhhhhhhhhhhhhhhhhhhhhhhhhh",
"hhhhhhhhhhhhhhhhhhhhhhhhhhhhhhhhhhhhhhhhhhhhhhhhhhhhhhhhhhhhhhhh",
"hhhhhhhhhhhhhhhhhhhhhhhh                hhhhhhhhhhhhhhhhhhhhhhhh",
"hhhhhhhhhhhhhhhhhhhhhhh                  hhhhhhhhhhhhhhhhhhhhhhh",
"hhhhhhhhhhhhhhhhhhhhhhh                  hhhhhhhhhhhhhhhhhhhhhhh",
"hhhhhhhhhhhhhhhhhhhhhhh                  hhhhhhhhhhhhhhhhhhhhhhh",
"hhhhhhhhhhhhhhh                                  hhhhhhhhhhhhhhh",
"hhhhhhhhhhhhhhh                                  hhhhhhhhhhhhhhh",
"hhhhhhhhhhhhhhh                                  hhhhhhhhhhhhhhh",
"hhhhhhhhhhhhhhh                                  hhhhhhhhhhhhhhh",
"hhhhhhhhhhhhhhh                                  hhhhhhhhhhhhhhh",
"hhhhhhhhhhh                                          hhhhhhhhhhh",
"hhhhhhhhhhh                                          hhhhhhhhhhh",
"hhhhhhhhhhh                                          hhhhhhhhhhh",
"hhhhhhhhhhh########.                @#######@        hhhhhhhhhhh",
"hhhhhh    *iiiiiiiu$                8iiiiiii9.            hhhhhh",
"hhhhhh    *yyyyyygs$               .9fyyyyyf0.            hhhhhh",
"hhhhhh    *tyyyyyys$               .9fyyyyyf0.            hhhhhh",
"hhhhhh ...*tyyyyyys&....        ....9fyyyyyf0+...         hhhhhh",
"hhhhhha000uyyyyyyyy0000*       @8000iyyyyyyyp0009@        hhhhhh",
"hhhhhhafffyyyyyyyyyffff-       @ufffyyyyyyyyyfffi#        hhhhhh",
"hhhhhhayyyyyyyyyyyyyyyg-       @ugyyyyyyyyyyyyyyi#        hhhhhh",
"hhhhhhaggggggggyyyyyyyg-       @ufggggggyyyyyyyyi#        hhhhhh",
"hhhhhh66666666wsyyyyyyg-       O76666666eyyyyyyyi#        hhhhhh",
"hhhhhh>33333332ryyyyyyg-       o,33333336gyyyyyyi#        hhhhhh",
"hhhhhh>33333332ryyyyyyg-       o,33333336gyyyyyyi#        hhhhhh",
"hhhhhh433333332ryyyyyyg-       o,33333336gyyyyyyi#        hhhhhh",
"hhhhhh:33333332ryyyyyyg-       o,33333336gyyyyyyi#        hhhhhh",
"hh    ;33333332ryyyyyyg-       o,33333336gyyyyyyi#            hh",
"hh    ;33333332ryyyyyyg-       o,33333336gyyyyyyi#            hh",
"hh    ;33333332ryyyyggf-       o,33333336gyyyggfi#            hh",
"hh    %,,,<1115ryytiuuu=       X,,,,1111qgyysuuu0#            hh",
"hh    Xooo*dddrtyys*@@@.        oooo8dddryyf0#@@@.            hh",
"hh        *yggyyyys$               .9fggyyyf0.                hh",
"hh        *tyyyyyys$               .9fyyyyyf0.                hh",
"hh        *sssssssp$               .9tssssst0.                hh",
"hh        @&&&&&&&&+                $&&&&&&&$                 hh",
"hh                                                            hh",
"hh                                                            hh",
"hh                                                            hh",
"hh                                                            hh",
"hh                                                            hh",
"hh                                                            hh",
"hh                                                            hh",
"hh                                                            hh",
"hh                                                            hh",
"hh                                                            hh",
"hh                                                            hh",
"hh                                                            hh",
"hh                                                            hh",
"hh                                                            hh",
"hh                                                            hh",
"hh                                                            hh",
"hh         hhhh             hhhhhhhh             hhhh         hh",
"hh         hhhh             hhhhhhhh             hhhh         hh",
"hh         hhhh             hhhhhhhh             hhhh         hh",
"hh         hhhh             hhhhhhhh             hhhh         hh",
"hh        hhhhh             hhhhhhhh             hhhhh        hh",
"hh    hhhhhhhhhhhhh         hhhhhhhh         hhhhhhhhhhhhh    hh",
"hh    hhhhhhhhhhhhh         hhhhhhhh         hhhhhhhhhhhhh    hh",
"hh    hhhhhhhhhhhhh         hhhhhhhh         hhhhhhhhhhhhh    hh",
"hh    hhhhhhhhhhhhh         hhhhhhhh         hhhhhhhhhhhhh    hh",
"hhhhhhhhhhhhhhhhhhhhhhhhhhhhhhhhhhhhhhhhhhhhhhhhhhhhhhhhhhhhhhhh",
"hhhhhhhhhhhhhhhhhhhhhhhhhhhhhhhhhhhhhhhhhhhhhhhhhhhhhhhhhhhhhhhh"
};
