/* XPM */
static char *ef20022ddb6d4ebde05cd3984abfc168mNZ47GCHaxxb1mqI[] = {
/* columns rows colors chars-per-pixel */
"64 64 83 1 ",
"  c #090909",
". c #F5C625",
"X c #FEC81E",
"o c #FEC81E",
"O c #E6C32D",
"+ c #FEC91C",
"@ c #FEC622",
"# c #FCD00D",
"$ c #FCD00D",
"% c #FFBE30",
"& c #FCD00D",
"* c #FFC02C",
"= c #FDCF0F",
"- c #FFBE30",
"; c #FEC720",
": c #FFC426",
"> c #FFBE30",
", c #FEC425",
"< c #5EB75B",
"1 c #5EB55A",
"2 c #FCD00D",
"3 c #FCD00D",
"4 c #FEC524",
"5 c #FFBF2E",
"6 c #FFBE30",
"7 c #FCD00D",
"8 c #FFBE30",
"9 c #FFBE30",
"0 c #FDD00D",
"q c #FDD10D",
"w c #5EB85B",
"e c #FCD00D",
"r c #FCD00D",
"t c #5EB75B",
"y c #FCD00D",
"u c #FEC721",
"i c #FFBF2F",
"p c #FFBE30",
"a c #FCD00D",
"s c #FCD00D",
"d c #FCD00D",
"f c #FFBF2F",
"g c #FFBE30",
"h c #5EB75B",
"j c #FCD00D",
"k c #764C24",
"l c #764B23",
"z c #FCD00D",
"x c #5EB75B",
"c c #FEC621",
"v c #5EB75B",
"b c #FFC02D",
"n c #FFBE30",
"m c #60AF57",
"M c #F7C715",
"N c #5EB75B",
"B c #5EB75B",
"V c #5EB75B",
"C c #5DB85B",
"Z c #5EB75B",
"A c #764C24",
"S c #764A23",
"D c #764B23",
"F c #E4B911",
"G c #764C24",
"H c #93691F",
"J c #CCA015",
"K c #6D4326",
"L c #FCD00D",
"P c #764C24",
"I c #FCD00D",
"U c #FFBE30",
"Y c #5EB75B",
"T c #FCCF0F",
"R c #FFC02D",
"E c #FFC229",
"W c #FEC621",
"Q c #FDCA19",
"! c #764C24",
"~ c #FCD00E",
"^ c #5EB85B",
"/ c #73592B",
"( c #090909",
/* pixels */
"                                                                ",
"                                                                ",
"                                                                ",
"                                                                ",
"                        Ox2                                     ",
"                        tvVtB2                                  ",
"                        tYYY<mN                                 ",
"                        C<YYYY1w                                ",
"                        xvYYYYY<w     s                         ",
"                         hYYYYYY1B   SjGs                       ",
"                         Z1YYYYYYVO PA!Ae                       ",
"                          w<YYYYY<Cel!!k2                       ",
"                          .t<YYYYYhD!!ke                        ",
"                          s2w1YYYY1d!je                         ",
"                            sNh1Y^(/le                          ",
"                              sZwmLdS                           ",
"                     .OXXX@.     D!k                            ",
"                  @+ay$&&&$#7+O 2ldK 2XuuXO                     ",
"                @3$0IIT~IIIIT0#+Hdj,a#&qq&#7rX                  ",
"               +#oIIIIIIIIIIII~0MJFqIIIIIIII=&a:                ",
"             .3qIIIIIIIIIIIIIIIIIIIIIIIIIIIIIII$;               ",
"             30IIIIIIIIIIIIIIIIIIIIIIIIIIIIIIIII0*.             ",
"            r0IIIIIIIIIIIIIIIIIIIIIIIIIIIIIIIIIII=*.            ",
"           ,qIIIIIIIIIIIIIIIIIIIIIIIIIIIIIIIIIIIIIc%            ",
"          OyIIIIIIIIIIIIIIIIIIIIIIIIIIIIIIIIIIIIIIob4           ",
"          ;=IIIIIIIIIIIIIIIIIIIIIIIIIIIIIIIIIIIIIIIW-O          ",
"         O#IIIIIIIIIIIIIIIIIIIIIIIIIIIIIIIIIIIIIIIIQf;          ",
"         +0IIIIIIIIIIIIIIIIIIIIIIIIIIIIIIIIIIIIIIIITE5O         ",
"         7IIIIIIIIIIIIIIIIIIIIIIIIIIIIIIIIIIIIIIIIIIW6+         ",
"        @$IIIIIIIIIIIIIIIIIIIIIIIIIIIIIIIIIIIIIIIIIIQU8         ",
"        40IIIIIIIIIIIIIIIIIIIIIIIIIIIIIIIIIIIIIIIIIIoRgX        ",
"       .rTIIIIIIIIIIIIIIIIIIIIIIIIIIIIIIIIIIIIIIIIIIoRp4        ",
"        aIIIIIIIIIIIIIIIIIIIIIIIIIIIIIIIIIIIIIIIIIIITEU%        ",
"        zIIIIIIIIIIIIIIIIIIIIIIIIIIIIIIIIIIIIIIIIIIITEU*        ",
"       .yIIIIIIIIIIIIIIIIIIIIIIIIIIIIIIIIIIIIIIIIIIITEUi        ",
"       2#IIIIIIIIIIIIIIIIIIIIIIIIIIIIIIIIIIIIIIIIIIITEU-.       ",
"       2#IIIIIIIIIIIIIIIIIIIIIIIIIIIIIIIIIIIIIIIIIIIoRU92       ",
"       .yIIIIIIIIIIIIIIIIIIIIIIIIIIIIIIIIIIIIIIIIIIIoRU-.       ",
"        7IIIIIIIIIIIIIIIIIIIIIIIIIIIIIIIIIIIIIIIIIIIQUU-        ",
"       .3IIIIIIIIIIIIIIIIIIIIIIIIIIIIIIIIIIIIIIIIIIIWUU8        ",
"        +=IIIIIIIIIIIIIIIIIIIIIIIIIIIIIIIIIIIIIIIIITEUU%        ",
"        u&IIIIIIIIIIIIIIIIIIIIIIIIIIIIIIIIIIIIIIIIIQUU6+        ",
"        .zIIIIIIIIIIIIIIIIIIIIIIIIIIIIIIIIIIIIIIIIIWUU>X        ",
"         r=IIIIIIIIIIIIIIIIIIIIIIIIIIIIIIIIIIIIIIIoRUUi         ",
"         X$IIIIIIIIIIIIIIIIIIIIIIIIIIIIIIIIIIIIII~WUU6;         ",
"          3TIIIIIIIIIIIIIIIIIIIIIIIIIIIIIIIIIIIIIQRUU5@         ",
"          X$IIIIIIIIIIIIIIIIIIIIIIIIIIIIIIIIIIIITEUUf%          ",
"           ;0IIIIIIIIIIIIIIIIIIIIIIIIIIIIIIIIIITWUUU9@          ",
"           .7IIIIIIIIIIIIIIIIIIIIIIIIIIIIIIIIIIWUUUp+           ",
"            X#IIIIIIIIIIIIIIIIIIIIIIIIIIIIIIIIQRUUf*            ",
"             ,$~IIIIIIIIIIIIIIIIIIIIIIIIIIII~QRUUU-@            ",
"              4MTIIIIIIIIIIIIIIIIIIIIIIIIIITWUUUU9:             ",
"               ,5QTIIIIIIIIIIIIIIIIIIIIIIIoEUUUU5u              ",
"               .:icQTIIIIIIIIIIIIIIIIIIIoWRUUUU-:               ",
"                 O%>EWQTIIIIIIIIIIIII~oWEUUUU68@                ",
"                  .u8bUEWQoTT~II~TToQWRUUUUUn;.                 ",
"                     ,*g6URREEWWEEERUUUUUU>*X                   ",
"                       X+*5pUUUUUUUUUUUp9%:                     ",
"                          O,%8-n>>>g9i%4O .                     ",
"                              .OXXX@2                           ",
"                                                                ",
"                                                                ",
"                                                                ",
"                                                                "
};
