/* XPM */
static char *_f0a47a7771d4afcede09fb43b938f12O773nzDwBeReDmXS[] = {
/* columns rows colors chars-per-pixel */
"64 64 217 2 ",
"   c None",
".  c #030000",
"X  c #040C04",
"o  c #1E0000",
"O  c #220000",
"+  c #210E07",
"@  c #340000",
"#  c #3A1622",
"$  c #302833",
"%  c #7A201F",
"&  c #7E1F27",
"*  c #5F212C",
"=  c #74393F",
"-  c #840003",
";  c #85070A",
":  c #970700",
">  c #9B0707",
",  c #9C0800",
"<  c #9F0C04",
"1  c #9F0608",
"2  c #90100F",
"3  c #8A0B14",
"4  c #9B0E14",
"5  c #851217",
"6  c #8B171A",
"7  c #831C1F",
"8  c #8C191E",
"9  c #971017",
"0  c #901414",
"q  c #911517",
"w  c #931516",
"e  c #9E1117",
"r  c #931B1A",
"t  c #A60100",
"y  c #A40200",
"u  c #A50102",
"i  c #A00500",
"p  c #A20403",
"a  c #A30305",
"s  c #A40007",
"d  c #AA0001",
"f  c #AC0000",
"g  c #AD0000",
"h  c #AB0700",
"j  c #A90702",
"k  c #AE0500",
"l  c #AE0701",
"z  c #AD0007",
"x  c #AF0206",
"c  c #AC0705",
"v  c #A20A07",
"b  c #A20E04",
"n  c #AE0A00",
"m  c #A90C03",
"M  c #A6020B",
"N  c #AA0708",
"B  c #AE050A",
"V  c #AD010D",
"C  c #A30B08",
"Z  c #A20D09",
"A  c #A20C0B",
"S  c #A90909",
"D  c #A80A0B",
"F  c #AC0809",
"G  c #AD080C",
"H  c #B30000",
"J  c #B00300",
"K  c #B40000",
"L  c #B70000",
"P  c #B50200",
"I  c #B40202",
"U  c #B10500",
"Y  c #B50603",
"T  c #B00005",
"R  c #B50104",
"E  c #B80000",
"W  c #BA0003",
"Q  c #B80501",
"!  c #B10805",
"~  c #B50804",
"^  c #B80A03",
"/  c #B3000A",
"(  c #B4000B",
")  c #B2050B",
"_  c #B8070D",
"`  c #B50E08",
"'  c #B3080E",
"]  c #BB0909",
"[  c #A3120D",
"{  c #A20C15",
"}  c #AE0B10",
"|  c #AB0A19",
" . c #BF0510",
".. c #B80B11",
"X. c #A61512",
"o. c #A31217",
"O. c #A41117",
"+. c #A11516",
"@. c #AC1011",
"#. c #AE1412",
"$. c #AD1916",
"%. c #AB111B",
"&. c #A71918",
"*. c #A41E1D",
"=. c #B61210",
"-. c #B21116",
";. c #BC1318",
":. c #B41A1C",
">. c #A81620",
",. c #B71B26",
"<. c #8A2932",
"1. c #9F2C39",
"2. c #A32320",
"3. c #A92320",
"4. c #AF2421",
"5. c #A52822",
"6. c #B02E2E",
"7. c #B62B31",
"8. c #B63B33",
"9. c #C4050D",
"0. c #CA090A",
"q. c #D50B00",
"w. c #D10C04",
"e. c #DA0905",
"r. c #DC1103",
"t. c #C60C17",
"y. c #CE0E19",
"u. c #D40811",
"i. c #C6121B",
"p. c #CC111C",
"a. c #CB1F1D",
"s. c #DB1516",
"d. c #DD1517",
"f. c #E60106",
"g. c #E90600",
"h. c #ED0700",
"j. c #E40E06",
"k. c #F30000",
"l. c #F60200",
"z. c #FA0203",
"x. c #FA0A00",
"c. c #FD0909",
"v. c #E71106",
"b. c #E71308",
"n. c #F6130C",
"m. c #ED0711",
"M. c #EA0911",
"N. c #DB1725",
"B. c #C02427",
"V. c #CF2025",
"C. c #C0262B",
"Z. c #CC212A",
"A. c #DB2129",
"S. c #D3362D",
"D. c #C52E35",
"F. c #E22A20",
"G. c #BC483B",
"H. c #933B47",
"J. c #F13F42",
"K. c #914A50",
"L. c #8D5256",
"P. c #95545C",
"I. c #A2454D",
"U. c #B64347",
"Y. c #B64E4F",
"T. c #BE5246",
"R. c #A54550",
"E. c #B05F5B",
"W. c #BC615E",
"Q. c #CC4D47",
"!. c #C24C48",
"~. c #CD4F53",
"^. c #D34E51",
"/. c #DB4A51",
"(. c #D55353",
"). c #EA4144",
"_. c #F55754",
"`. c #C07570",
"'. c #EA6268",
"]. c #EC6F6D",
"[. c #F2676A",
"{. c #E9726A",
"}. c #F1817F",
"|. c #AF7B87",
" X c #D67981",
".X c #CA8080",
"XX c #C38F94",
"oX c #E08E82",
"OX c #FF8A85",
"+X c #FF8789",
"@X c #FF8A8D",
"#X c #FF9489",
"$X c #F8928E",
"%X c #E59691",
"&X c #FA9490",
"*X c #FF959C",
"=X c #FF9D9D",
"-X c #F2A29F",
";X c #FFAA9E",
":X c #C0A1A7",
">X c #E0A2A7",
",X c #EEA8AF",
"<X c #F7A4A0",
"1X c #F8A2A5",
"2X c #FDA5A4",
"3X c #F0ABA2",
"4X c #F5A5A8",
"5X c #FFB5AE",
"6X c #F8A6B2",
"7X c #E3B3B7",
"8X c #E6B0BB",
"9X c #FFB1B3",
"0X c #FFB0B9",
"qX c #FFBCC3",
"wX c #F6BCC8",
"eX c #FFC4C0",
"rX c #FAD1CD",
/* pixels */
"                                                                                                                                ",
"                                                                                                                                ",
"                                                                                                                                ",
"                                                                                                                                ",
"                                                                                                                                ",
"                                                                                                                                ",
"                                                                                                                                ",
"                                                                                                                                ",
"                                                                                                                                ",
"                                                                                                                                ",
"                                                                                                                                ",
"                                                                                                                                ",
"                                                                                                                                ",
"                                                                                                                                ",
"                                                                                                                                ",
"                                                                                                                                ",
"                                                                                                                                ",
"                                                                                                                                ",
"                                                                                                                                ",
"                                                                                                                                ",
"                                                                                                                                ",
"                                                                                                                                ",
"                                                                                                                                ",
"                                                            6.B.C.7.U.                                                          ",
"                                                        '.).w.b.j.e.s.J./.                                                      ",
"                                                      D.i.d.v.g.x.l.c.M.y.                                                      ",
"                                                    Z.N.V.a.F.r.h.k.z.m.A.                                                      ",
"                                                  2.t.p.[.    S.q.n.f.u.@X    =                                                 ",
"                                                  3.:.+X        _.0.t.*X                                                        ",
"                                                  $.4.&X      7X^.;.,.qX                                                        ",
"                                                  ` [ $X    $ O ; @.e 9X    X .                                                 ",
"                                                X.] #.}.    # @ - -.O.=X    + o * 8X                                            ",
"                                                o.z } *.W.  0X1.| / ..&.oX  5X% & ,X                                            ",
"                                                { ( ' C 5.!.~.>.V  .K c 8.T.Q.2 6 4X                                            ",
"                                                M 9.g h m i S u d K W Q u i F 1 0 -X                                            ",
"                                                s W k n U ^ g ! =.u K K R _ T S 0 <X                                            ",
"                                                %.) b , J J ~ h : < k Y z B G > 0 2X                                            ",
"                                              .X3 4 #XG.Z N Z OX;X{.v a +.(.].r 5 1X                                            ",
"                                              XXH. X  3XY.8 7 eX  %X9 9 E.    `.<.6X                                            ",
"                                              :X|.      >XK.L.      R.I.rX      P.wX                                            ",
"                                                                                                                                ",
"                                                                                                                                ",
"                                                                                                                                ",
"                                                                                                                                ",
"                                                                                                                                ",
"                                                                                                                                ",
"                                                                                                                                ",
"                                                                                                                                ",
"                                                                                                                                ",
"                                                                                                                                ",
"                                                                                                                                ",
"                                                                                                                                ",
"                                                                                                                                ",
"                                                                                                                                ",
"                                                                                                                                ",
"                                                                                                                                ",
"                                                                                                                                ",
"                                                                                                                                ",
"                                                                                                                                ",
"                                                                                                                                ",
"                                                                                                                                ",
"                                                                                                                                ",
"                                                                                                                                ",
"                                                                                                                                "
};
