/* XPM */
static char *_e33403e272b4226df32a955483956b10aJc8G3Jcak8nt6A[] = {
/* columns rows colors chars-per-pixel */
"64 64 25 1 ",
"  c black",
". c #FFF300",
"X c gray1",
"o c #070707",
"O c #FFF604",
"+ c #212009",
"@ c #DFD50B",
"# c #F8ED05",
"$ c #6E690B",
"% c #121109",
"& c #37350B",
"* c #BAB10E",
"= c #958E11",
"- c #FCF44C",
"; c #EEE308",
": c #D4CB0C",
"> c #555111",
", c #4A470E",
"< c #A9A210",
"1 c #FDFBC4",
"2 c #C7BD0F",
"3 c #FEFFFC",
"4 c #5A550A",
"5 c #FCF897",
"6 c #7E7912",
/* pixels */
"                                                                ",
"                                                                ",
"                                                                ",
"                                                                ",
"                                                                ",
"                                                                ",
"                                                                ",
"                                                                ",
"                                                                ",
"                                                                ",
"                                                                ",
"                                                                ",
"                                                                ",
"                                                                ",
"                                                                ",
"                                                                ",
"                                                                ",
"                                                                ",
"                    XoXXXXXXX      ooXXXXXo                     ",
"                    XX      o      oX     X                     ",
"                  XXo+++++++%XX  Xo%+++++++oXX                  ",
"                  oo+2@@@@@@>XoX oX>@@@@@@*%oo                  ",
"                 Xo +@O.OO..4 XXXX 4.....O:% o                  ",
"               Xoo,=<;.-11-.*=6%o$=*......;==,ooX               ",
"               Xo $OO..-335..O:%X*O........OO$ oX               ",
"               Xo $..---55-...@4,:...........$ oX               ",
"               Xo $..131.......##............$ oX               ",
"               Xo $..131...#.......#..#..#...$ oX               ",
"               Xo $..---......#..#...........$ oX               ",
"               Xo $OO....#.................OO$ oX               ",
"               XoX>*2#......#.............;**>ooX               ",
"                XXoo+@.#.................O:+%%                  ",
"                  oX+:##................##2%o%                  ",
"                  Xo%&&<O..#..#..#..#...=&&ooX                  ",
"                      X=O.............OO6                       ",
"                     oo>=<#..........#*<>Xo                     ",
"                       X &;...#..#...;& o                       ",
"                       X &@;#......#;:+Xo                       ",
"                       XX%+&*O.....*&+oXX                       ",
"                         o X<O....O<X X                         ",
"                         Xoo,$=##=$,ooX                         ",
"                            X &##, X                            ",
"                            oX&22&Xo                            ",
"                            XXo%%oXX                            ",
"                              X XX                              ",
"                              XooX                              ",
"                                                                ",
"                                                                ",
"                                                                ",
"                                                                ",
"                                                                ",
"                                                                ",
"                                                                ",
"                                                                ",
"                                                                ",
"                                                                ",
"                                                                ",
"                                                                ",
"                                                                ",
"                                                                ",
"                                                                ",
"                                                                ",
"                                                                ",
"                                                                "
};
