/* XPM */
static char *_f69d15f467f4861ad262ef912588685YYG0FnbbJ2JKZ1DG[] = {
/* columns rows colors chars-per-pixel */
"64 64 200 2 ",
"   c None",
".  c #040300",
"X  c #0A0500",
"o  c #070900",
"O  c #0C0A00",
"+  c #0D040A",
"@  c #110C01",
"#  c #110B0F",
"$  c #121100",
"%  c #191808",
"&  c #1E2200",
"*  c #232400",
"=  c #242900",
"-  c #2B2A00",
";  c #282500",
":  c #322E00",
">  c #2F3200",
",  c #333500",
"<  c #353900",
"1  c #3E3900",
"2  c #35321F",
"3  c #3A3827",
"4  c gray23",
"5  c #453C00",
"6  c #3D4000",
"7  c #434300",
"8  c #494500",
"9  c #4B4D06",
"0  c #4D5100",
"q  c #525400",
"w  c #555708",
"e  c #514D1E",
"r  c #54551B",
"t  c #6D7000",
"y  c #797A00",
"u  c #4C4A2B",
"i  c #4F5024",
"p  c #52532E",
"a  c #545424",
"s  c #474637",
"d  c #5E5C35",
"f  c #59563A",
"g  c #656328",
"h  c #6F6D32",
"j  c #797A2C",
"k  c #3E3941",
"l  c #494946",
"z  c #534C42",
"x  c #55564C",
"c  c #5A5A4D",
"v  c #5B5747",
"b  c #5B5B53",
"n  c #585455",
"m  c #606141",
"M  c #616356",
"N  c #626359",
"B  c #67695F",
"V  c #7B7D72",
"C  c #7E8209",
"Z  c #7D8224",
"A  c #81830D",
"S  c #848A0C",
"D  c #92950A",
"F  c #848618",
"G  c #979915",
"H  c #A39A00",
"J  c #9DA30E",
"K  c #A7A706",
"L  c #AFB80D",
"P  c #B8BC03",
"I  c #BABB0B",
"U  c #B5BC09",
"Y  c #A7A91A",
"T  c #B9BA18",
"R  c #888E22",
"E  c #8E9223",
"W  c #9B9E23",
"Q  c #96982D",
"!  c #828534",
"~  c #8E8B32",
"^  c #8C8C3B",
"/  c #89853E",
"(  c #9E9E30",
")  c #9CA321",
"_  c #9EA033",
"`  c #A5A524",
"'  c #A8AA27",
"]  c #B4B52B",
"[  c #BABA3E",
"{  c #BABD32",
"}  c #C4BE28",
"|  c #BDC20C",
" . c #BDC414",
".. c #BEC41A",
"X. c #BAC020",
"o. c #BEC539",
"O. c #C5C703",
"+. c #C6CA02",
"@. c #CACE00",
"#. c #C4C70C",
"$. c #CBD400",
"%. c #DADC04",
"&. c #DBDE0D",
"*. c #C1C616",
"=. c #C4CA14",
"-. c #C6C91B",
";. c #CDD011",
":. c #DBDD12",
">. c #DDE200",
",. c #E1E500",
"<. c #E4EA01",
"1. c #EAED01",
"2. c #E6EB0C",
"3. c #EAEC0D",
"4. c #E0E30C",
"5. c #F0EE03",
"6. c #EEF401",
"7. c #EDF708",
"8. c #F5F702",
"9. c #F5FB03",
"0. c #FCFE03",
"q. c #F1F40B",
"w. c #F4FC0A",
"e. c #FDFE0B",
"r. c #E1E515",
"t. c #E4EB1A",
"y. c #E6EA16",
"u. c #ECF119",
"i. c #EBF717",
"p. c #F5FC13",
"a. c #FCFE13",
"s. c #F5FD1B",
"d. c #FCFE1B",
"f. c #F2F512",
"g. c #C2C52A",
"h. c #D8DC26",
"j. c #D3D035",
"k. c #DAE026",
"l. c #EBEF2F",
"z. c #E8E627",
"x. c #EDF62F",
"c. c #F2F624",
"v. c #F4FB24",
"b. c #F9FC24",
"n. c #F4FF2A",
"m. c #FEFD2A",
"M. c #EDEF32",
"N. c #E8E939",
"B. c #F1EB3D",
"V. c #ECF131",
"C. c #EEF23D",
"Z. c #EDF935",
"A. c #F2F636",
"S. c #FBFE34",
"D. c #F5FB3B",
"F. c #FDFF3A",
"G. c #F5F936",
"H. c #8B8D44",
"J. c #A4A740",
"K. c #A7A761",
"L. c #A1A477",
"P. c #C4C043",
"I. c #D7DB48",
"U. c #C3C158",
"Y. c #E5E94A",
"T. c #F0EA4A",
"R. c #EEF343",
"E. c #ECF54D",
"W. c #FCFD43",
"Q. c #F5F94A",
"!. c #FCFE4F",
"~. c #F0F840",
"^. c #ECF452",
"/. c #EDF45A",
"(. c #EEF955",
"). c #FCFD54",
"_. c #FDFD5B",
"`. c #EBE656",
"'. c #E6EC6E",
"]. c #EEF460",
"[. c #FEFC62",
"{. c #FEFE6C",
"}. c #F2F767",
"|. c #FEFB74",
" X c #FEFB76",
".X c #A9A998",
"XX c #B5B59B",
"oX c #BEBFAF",
"OX c #BFBFB5",
"+X c #FFFE83",
"@X c #FFFE8C",
"#X c #FFFF95",
"$X c #FFFF9C",
"%X c #CCCDBF",
"&X c #C6C6AA",
"*X c #CDCEC9",
"=X c #DEDFD9",
"-X c #E4E9E3",
";X c #F3F5EC",
":X c #F0F4E4",
/* pixels */
"                                                                                                                                ",
"                                                                                                                                ",
"                                                                                                                                ",
"                                                                                                                                ",
"                                                                                                                                ",
"                                                                                                                                ",
"                                                                                                                                ",
"                                                                                                                                ",
"                                                                                                                                ",
"                                                                                                                                ",
"                                                                                                                                ",
"                                                                                                                                ",
"                                                                                                                                ",
"                                          B x M c N c                     V M M c b b N                                         ",
"                                        . . . . . . O .X                  3 . . . . . . s                                       ",
"                                      XX> , < , < < > L.oX*X        =X%X&Xi < < < > , > p                                       ",
"                                  x O : ].V.M.V.A.R.Y.q o 4 -X      OX@ @ U.Y.C.l.l.N.I.J.$ O                                   ",
"                                  m O < V.s.m.m.b.c.D.q o u :X-X;X;X.XX O T m.a.e.e.<.t.Y O O                                   ",
"                              c d ! ) L W.A.[.|.[._.).T J R d b n v h ( K y.w.9.8.e.8.2.h.J Q g v                               ",
"                              . o W E.Z.!.[.@X@X X_.Q.D.Z.g.o X X X 7 ^.c.e.0.0.0.9.e.d.u.k.I., X f                             ",
"                              < 6 T C.!.{.|.|.{.).W.F.v.s.#.1 5 1 < t S.a.9.0.0.0.0.0.0.p.y.h.0 - r                             ",
"                          $ & '.Y.W.Q.{.#X@X).A.n.i.s.a.w.u.B.T.B.G.c.f.0.0.0.9.0.0.9.9.9.>.z. .o.Z O #                         ",
"                          . = /.A.F.[.+X#X+XW.s.7.a.9.9.0.e.d.d.a.p.p.q.e.9.9.0.0.0.0.e.9.<.3.+.U S . .                         ",
"                          O = (.D.!.+X@X|.).b.w.e.6.0.0.9.0.0.0.0.0.e.e.8.0.0.0.0.e.8.0.9.<.<.@.| S X @                         ",
"                          . = /.Q.[.$X@XW.s.a.e.0.0.0.0.0.0.0.0.0.0.0.0.0.0.0.0.0.e.e.e.8.1.,.@.*.C O X                         ",
"                          O * /.R.[.@X|.b.0.e.e.0.0.0.0.0.0.0.0.0.0.0.0.0.0.0.0.0.9.9.e.9.1.2.+. .A X +                         ",
"                          X * (.x.F._.!.d.0.9.0.e.e.e.e.0.0.0.0.0.0.0.0.0.0.0.0.0.0.0.0.6.,.y.O...S X +                         ",
"                          . = ^.n.b.F.S.a.0.0.0.e.e.e.e.0.0.0.0.0.0.0.0.0.0.0.0.0.0.0.0.6.<.y.+. .A X +                         ",
"                          o - ^.i.w.s.s.9.0.e.0.0.0.0.0.0.0.0.0.0.0.e.e.0.0.0.0.0.9.0.9.9.1.>.+. .S X +                         ",
"                          X % }.S.p.e.e.0.0.0.9.0.0.0.0.0.0.0.0.0.0.e.e.0.0.0.0.e.0.0.0.9.<.4.;.X.F . #                         ",
"                          2 9 U.} z.a.0.0.9.9.e.0.0.0.0.0.0.0.0.0.0.0.0.0.0.0.0.0.0.9.9.q.&.z.K W j 3 k                         ",
"                              o @ H d.0.0.0.9.0.0.0.0.0.0.0.0.0.0.0.0.0.0.0.0.0.9.0.1.<.%.O.T : O a                             ",
"                              . o ' c.9.0.0.e.e.0.0.9.0.0.0.0.0.0.0.0.0.0.0.e.e.e.e.1.<.%.#.g.- .                               ",
"                              . o G x.d.9.0.e.e.0.0.9.9.0.0.0.0.0.0.0.0.0.0.e.a.e.e.,.<.r.I ] - .                               ",
"                              . o _ ~.q.0.0.8.0.0.0.0.0.0.0.0.0.0.0.0.0.e.e.e.e.e.e.6.<.:...[ ; .                               ",
"                                  ^ ] #.p.0.0.0.0.0.0.0.0.0.0.0.0.0.0.e.e.e.0.0.9.9.,.$.=.G ~ e                                 ",
"                                    O , n.0.0.9.0.0.0.0.0.0.0.e.e.0.0.0.0.0.0.0.<.,.@.=.G o O                                   ",
"                                    O < /.t.s.e.0.0.0.0.0.0.0.e.e.0.0.0.0.0.9.8.,.u. .{ ! $ X                                   ",
"                                        , 7 P p.0.0.0.0.0.0.0.0.0.0.0.0.0.9.6.<.@.-.q :                                         ",
"                                        . X ` D.s.e.0.0.0.0.0.0.0.0.e.e.9.6.,.&.*.[ ;                                           ",
"                                        l u ^ ` I b.e.0.e.e.0.0.e.8.9.9.9.>.&.-.A /                                             ",
"                                            d @ 8 W.b.p.w.e.9.9.e.a.9.,.2.$.P D O .                                             ",
"                                            z @ 7 Y.M.b.p.a.e.0.0.9.w.2.t.=.g.E o O                                             ",
"                                                K.0 7 | b.w.9.e.9.6.>.@.-.0 , w                                                 ",
"                                                  . o ' A.p.e.9.<.,.r.=.{ , o s                                                 ",
"                                                  b f H.Y P q.9.<.%.| y F g v                                                   ",
"                                                      s X 8 :.5.@.#.G @ X                                                       ",
"                                                      l . 5 `.N.j.P.~ @ .                                                       ",
"                                                            - , - - p                                                           ",
"                                                            o o . . l                                                           ",
"                                                            x b b N                                                             ",
"                                                                                                                                ",
"                                                                                                                                ",
"                                                                                                                                ",
"                                                                                                                                ",
"                                                                                                                                ",
"                                                                                                                                ",
"                                                                                                                                ",
"                                                                                                                                ",
"                                                                                                                                ",
"                                                                                                                                ",
"                                                                                                                                ",
"                                                                                                                                ",
"                                                                                                                                "
};
