/* XPM */
static char *_d43f3246e7f4625d8eb2a6d70e51659lv7ShZBdRHCP2hjB[] = {
/* columns rows colors chars-per-pixel */
"64 64 21 1 ",
"  c black",
". c #040405",
"X c #101004",
"o c #1F1F05",
"O c #2F2E05",
"+ c #424106",
"@ c #575606",
"# c #656407",
"$ c #737107",
"% c #807F07",
"& c #929007",
"* c #A7A507",
"= c #B5B307",
"- c #C5C206",
"; c #D4D106",
": c #DEDB05",
"> c #E7E404",
", c #EEEC03",
"< c #F2EF00",
"1 c #F4F101",
"2 c #F6F301",
/* pixels */
"                                                                ",
"                                                                ",
"                                                                ",
"                                                                ",
"                         .  .   .     ..                        ",
"                       ...XO+@$%%%$#@Oo....                     ",
"                   . .XO#&-:,<111111,>;*$+X...                  ",
"                 ...o#*:<111<<<<<<<<<1111>-$O...                ",
"                ..o$-<1<<<<<<<<<<<<<<<<<<<11:&O...              ",
"              ..X#-11<<<<<<<<<<<<<<<<<<<<<<<11:%o..             ",
"             ..O*,1<<<<<<<<<<<<<<<<<<<<<<<<<<<11-@..            ",
"            ..@;11<<<<<<<<<<<<<<<<<<<<<<<<<<<<<<1>&X .          ",
"           .X%>1<<<<<<<<<<<<<<<<<<<<<<<<<<<<<<<<<<1*O..         ",
"          .X&<1<<<<<<<<<<<<<<<<<<<<<<<<<<<<<<<<<<<<1-O..        ",
"         .X&<<<<<<<<<<<<<<<<<<<<<<<<<<<<<<<<<<<<<<<<1-O..       ",
"        .X&<1<<<<<<<<<<<<<<<<<<<<<<<<<<<<<<<<<<<<<<<<1-o.       ",
"       ..$,<<<<<<<<<<<<<<<<<<<<<<<<<<<<<<<<<<<<<<<<<<<1*X.      ",
"      ..+>1<<<<<<<<<<<<<<<<<<<<<<<<<<<<<<<<<<<<<<<<<<<<1%..     ",
"      .o-1<<<<<<<<<<<<<<<<<<<<<<<<<<<<<<<<<<<<<<<<<<<<<<>@.     ",
"     ..&1<<<<<<<<<<<<<<<<<<<<<<<<<<<<<<<<<<<<<<<<<<<<<<<1-o.    ",
"     .+>1<<<<<<<<<<<<<<<<<<<<<<<<<<<<<<<<<<<<<<<<<<<<<<<<1%..   ",
"    .X*1<<<<<<<<<<<<<<<<<<<<<<<<<<<<<<<<<<<<<<<<<<<<<<<<<1:O.   ",
"    .+><<<<<<<<<<<<<<<<<<<<<<<<<<<<<<<<<<<<<<<<<<<<<<<<<<<1&..  ",
"   ..*1<<<<<<<<<<<<<<<<<<<<<<<<<<<<<<<<<<<<<<<<<<<<<<<<<<<1;O.  ",
"   .O:1<<<<<<<<<<<<<<<<<<<<<<<<<<<<<<<<<<<<<<<<<<<<<<<<<<<<1$.  ",
"   .$1<<<<<<<<<<<<<<<<<<<<<<<<<<<<<<<<<<<<<<<<<<<<<<<<<<<<<1=X. ",
"  .X=1<<<<<<<<<<<<<<<<<<<<<<<<<<<<<<<<<<<<<<<<<<<<<<<<<<<<<<>O. ",
"  .O:<<<<<<<<<<<<<<<<<<<<<<<<<<<<<<<<<<<<<<<<<<<<<<<<<<<<<<<1#. ",
"   @<<<<<<<<<<<<<<<<<<<<<<<<<<<<<<<<<<<<<<<<<<<<<<<<<<<<<<<<1*..",
"  .&1<<<<<<<<<<<<<<<<<<<<<<<<<<<<<<<<<<<<<<<<<<<<<<<<<<<<<<<1-X.",
" ..=1<<<<<<<<<<<<<<<<<<<<<<<<<<<<<<<<<<<<<<<<<<<<<<<<<<<<<<<1:O.",
" .X-1<<<<<<<<<<<<<<<<<<<<<<<<<<<<<<<<<<<<<<<11<<<<<<<<<<<<<<<,+.",
"  o;1<<<<<<<<<<<<<<<<<<<<<<<<<<<<<<<<<<<<<1>-=:1<<<<<<<<<<<<<<@.",
" .O:<<<<<<<<<<<<<<<<<<<<<<<<<<<<1<<<<<<<<1;@XXO*1<<<<<<<<<<<<1# ",
" .O><<<<<<<<<<<<<<<<<<<<<<<<<<<<=:1<<<<<<,#    O;1<<<<<<<<<<<1$ ",
" .O><<<<<<<<<<<<<<<<<<<<<<<<<<,&X#>1<<<<<:o    .*1<<<<<<<<<<<1$ ",
" .O><<<<<<<<<<<<<<<<<<<<<<<<1>$X..$,1<<<1:o    .*1<<<<<<<<<<<1$ ",
" .O:<<<<<<<<<<<<<<<<<<<<<<<<>#.. ..%,1<<<,#    O;1<<<<<<<<<<<1# ",
"  o;1<<<<<<<<<<<<<<<<<<<<<<:@..   .X&<1<<1;@XXO=1<<<<<<<<<<<<<@.",
" .X-1<<<<<<<<<<<<<<<<<<<<1;+..     .X&1<<<1>-=:1<<<<<<<<<<<<<>+.",
" ..*1<<<<<<<<<<<<<<<<<<<1-O..       .X*1<<<<111<<<<<<<<<<<<<1:O.",
"  .%1<<<<<<<<<<<<<<<<<<1=O..         .o*1<<<<<<<<<<<<<<<<<<<1-X.",
"   @,<<<<<<<<<<<<<<<<1<*o..           .o=1<<<<<<<<<<<<<<<<<<1&..",
"  .O:1<<<<<<<<<<<<<<<,&X.              .O-1<<<<<<<<<<<<<<<<<<#. ",
"  .X=1<<<<<<<<<<<<<<,%X.               ..O-1<<<<<<<<<<<<<<<<:O. ",
"   .$1<<<<<<<<<<<<1>$..                 ..+;1<<<<<<<<<<<<<<1*X. ",
"   .O:1<<<<<<<<<<1:@..                   ..+;1<<<<<<<<<<<<<<#.  ",
"   ..&1<<<<<<<<<1;+..                     ..@:<<<<<<<<<<<<<;o.  ",
"    .+><<<<<<<<1-+..                       ..@>1<<<<<<<<<<1%..  ",
"    ..*1<<<<<<1=O..                         ..#><<<<<<<<<1;o.   ",
"     .O:1<<<11*o..                           ..$,<<<<<<<<<$..   ",
"     ..%1<<1<&X.                              ..%,1<<<<<1=X.    ",
"      .o=11,%X.                                .X%,<<<<1:+.     ",
"       .+:>$..                                  .X&<<<1,$..     ",
"       ..@@..                                    .X*1<1&X.      ",
"        ....                                      .o*1*o.       ",
"         ..                                        .o%o.        ",
"                                                    ...         ",
"                                                    ...         ",
"                                                                ",
"                                                                ",
"                                                                ",
"                                                                ",
"                                                                "
};
