/* XPM */
static char *_99d24a7ee0d4cf9dc6d9220347c9cc58HPxNlAhlCgh4KOO[] = {
/* columns rows colors chars-per-pixel */
"64 64 175 2 ",
"   c None",
".  c #060500",
"X  c #0A0500",
"o  c #070A00",
"O  c #0B0A00",
"+  c #100700",
"@  c #110B00",
"#  c #141200",
"$  c #191600",
"%  c #171B00",
"&  c #1E1B00",
"*  c #221D02",
"=  c #221D09",
"-  c #1B2300",
";  c #262302",
":  c #282800",
">  c #343D00",
",  c #413935",
"<  c #423D39",
"1  c #3F4000",
"2  c #444200",
"3  c #464800",
"4  c #4F4D00",
"5  c #4B5107",
"6  c #585804",
"7  c #5E6200",
"8  c #626600",
"9  c #6B6D01",
"0  c #6A6402",
"q  c #6E7500",
"w  c #727300",
"e  c #767D00",
"r  c #7C7D00",
"t  c #616618",
"y  c #666915",
"u  c #706A1C",
"i  c #767313",
"p  c #7E7B1F",
"a  c #797619",
"s  c #484326",
"d  c #4C5129",
"f  c #5D593C",
"g  c #655E30",
"h  c #6A652A",
"j  c #767422",
"k  c #797722",
"l  c #76712D",
"z  c #453C41",
"x  c #4C4847",
"c  c #665E4A",
"v  c #646148",
"b  c #706D41",
"n  c #777740",
"m  c #6A6652",
"M  c #676358",
"N  c #828200",
"B  c #8B8B00",
"V  c #9F9E08",
"C  c #969806",
"Z  c #93961D",
"A  c #BBBC09",
"S  c #BEBE12",
"D  c #898827",
"F  c #908F32",
"G  c #979A31",
"H  c #999A32",
"J  c #929337",
"K  c #A4A726",
"L  c #B7BE20",
"P  c #BABE23",
"I  c #ABAC35",
"U  c #B6BA3D",
"Y  c #C2BF1C",
"T  c #BDC402",
"R  c #BBC01B",
"E  c #BFC027",
"W  c #D5DD01",
"Q  c #D7DB08",
"!  c #DDD904",
"~  c #C0C510",
"^  c #C5CC17",
"/  c #C2C41D",
"(  c #CACF1B",
")  c #CED61E",
"_  c #D1D810",
"`  c #D9DE12",
"'  c #DBDC1F",
"]  c #DEE604",
"[  c #DDE40B",
"{  c #E2E501",
"}  c #EAE700",
"|  c #E6EB03",
" . c #EBEE01",
".. c #E3EB0A",
"X. c #E6E60C",
"o. c #EAF201",
"O. c #F4F500",
"+. c #F5FA03",
"@. c #FCFE03",
"#. c #F2F508",
"$. c #F6FD0C",
"%. c #FDFE0B",
"&. c #E7E312",
"*. c #EDF31E",
"=. c #EEFF1D",
"-. c #F1F611",
";. c #F4FD12",
":. c #FBFE14",
">. c #F1F918",
",. c #FCFF1D",
"<. c #C5C726",
"1. c #CED523",
"2. c #DEDF29",
"3. c #C1C331",
"4. c #DBDF3B",
"5. c #D7DB35",
"6. c #D7E52E",
"7. c #DAE527",
"8. c #DDEC31",
"9. c #E5E923",
"0. c #E5F32C",
"q. c #F4F626",
"w. c #F7FC22",
"e. c #FBFD25",
"r. c #F1F72C",
"t. c #F4FB2A",
"y. c #FCFF2B",
"u. c #E3E73C",
"i. c #EEF837",
"p. c #F6F933",
"a. c #FAFE35",
"s. c #F8FB3B",
"d. c #8F8A46",
"f. c #BCBC40",
"g. c #938F6C",
"h. c #938D7A",
"j. c #989277",
"k. c #979272",
"l. c #A7A678",
"z. c #DBDA42",
"x. c #C0C25F",
"c. c #D7D951",
"v. c #DAE647",
"b. c #E2E94B",
"n. c #EDF84D",
"m. c #FEFE44",
"M. c #FEFE4A",
"N. c #F2F743",
"B. c #E9EF51",
"V. c #EBF455",
"C. c #F5FC54",
"Z. c #FCFF54",
"A. c #FFFF5C",
"S. c #F4F55A",
"D. c #D9E265",
"F. c #FBFD62",
"G. c #FFFF6C",
"H. c #FFFE74",
"J. c #FFFF79",
"K. c #908C83",
"L. c #ABA583",
"P. c #ADB29C",
"I. c #B8B395",
"U. c #B8BBAC",
"Y. c #B9B8A9",
"T. c #B9B7B4",
"R. c #C1C2AC",
"E. c #DBDFBA",
"W. c #DBD7D3",
"Q. c #E1DFC8",
"!. c #E1DED9",
"~. c #E6E5D8",
"^. c #EFF4DE",
"/. c #F8FBE0",
"(. c #F5F0F7",
/* pixels */
"                                                                                                                                ",
"                                                                                                                                ",
"                                                                                                                                ",
"                                                                                                                                ",
"                                                                                                                                ",
"                                                                                                                                ",
"                                                                                                                                ",
"                                                                                                                                ",
"                                                                                                                                ",
"                                                                                                                                ",
"                                                                                                                                ",
"                                                                                                                                ",
"                                                                                                                                ",
"                                                                                                                                ",
"                                                                                                                                ",
"                                                                                                                                ",
"                                                                                                                                ",
"                                                                                                                                ",
"                                                                        z , , < x                                               ",
"                                                      .               h.X @ + . $ /.^.                                          ",
"                                              D.v.6.8.v.y &       R.& u z.2.u.c.x.% d ~.                                        ",
"                                          1 > n.0.a.=.i.q :     Q.l.; N e.%.-.9.4.- 5 E.~.                                      ",
"                                      v o   V.Z.G.H.Z.M.m.B.* X . 2 S.*.$.@.:.$.>.7.U o c (.                                    ",
"                                      n 9 b.C.A.H.H.Z.a.;.t.r 0 9 B y.+.@.@.@.@.@...R 6 b K.!.                                  ",
"                                    O J B.Z.F.J.F.M.w.;.$.$.q.p.p.w.$.@.@.@.@.@.@. .` E j . U.                                  ",
"                                    O G n.M.H.S.m.e.$.@.@.@.@.%.@.@.@.@.@.@.@.@.@.} X.S i O P.                                  ",
"                                    . F F.A.A.m.e.$.@.@.@.@.@.@.@.@.@.@.@.@.@.@.@.} &.Y i . U.                                  ",
"                                    O H C.s.m.q.:.@.@.%.@.@.@.@.@.@.@.@.@.@.@.@.%.{ ! / p . U.                                  ",
"                                    . G i.e.y.,.%.@.%.%.@.@.@.@.@.@.%.%.@.@.@.@.@. .| A a . P.                                  ",
"                                    . J N.,.;.$.@.@.@.%.@.@.@.@.@.@.%.%.@.@.%.%.@.{ Q <.k O Y.                                  ",
"                                    = d.z.q.:.@.@.@.@.@.%.%.@.@.@.@.@.@.@.@.%.#.:.[ 5.I h ; T.                                  ",
"                                      g # ' ,.@.@.@.@.@.%.%.@.@.@.@.@.@.@.@.+. .{ T C O b ~.                                    ",
"                                      f # 4.w.@.@.@.@.@.@.%.+.@.@.@.@.%.@.@.%.| [ ~ Z . m                                       ",
"                                      m O c.p.:.@.@.@.@.+.@.@.%.%.O.@.@.O.%.%.] 9.P F . M                                       ",
"                                      Y.g.j N r.:.@.+.@.%.@.@.@.@.%.@.%.%.O.o.W / 6 h h.                                        ",
"                                          * $ S.r.$.%.%.+.@.@.@.@.@.%.+.+.o...^ f.. s                                           ",
"                                          Y.L.4 r a.;.@.@.@.%.@.@.@.@.@.o.W 1.3 2 I.                                            ",
"                                            W.. 1 V.t.$.%.@.@.@.@.%.O.#.[ ) U & $                                               ",
"                                              !.I.% e w.o.@.@.@.%.#.o.W ^ 7 #                                                   ",
"                                                T.; 9 5.*.$.%.%.#.-.[ ( K 6 *                                                   ",
"                                                    k.O C q.,.#...` / w @ j.                                                    ",
"                                                      c D V 9.*._ / w l v                                                       ",
"                                                        c X 3.u.L Z O                                                           ",
"                                                            p 8 7 t                                                             ",
"                                                                .                                                               ",
"                                                                                                                                ",
"                                                                                                                                ",
"                                                                                                                                ",
"                                                                                                                                ",
"                                                                                                                                ",
"                                                                                                                                ",
"                                                                                                                                ",
"                                                                                                                                ",
"                                                                                                                                ",
"                                                                                                                                ",
"                                                                                                                                ",
"                                                                                                                                ",
"                                                                                                                                ",
"                                                                                                                                ",
"                                                                                                                                ",
"                                                                                                                                ",
"                                                                                                                                ",
"                                                                                                                                ",
"                                                                                                                                "
};
