/* XPM */
static char *_71fa665d88a49f581e6686c76674d670YLMP2exRU5ZkgPz[] = {
/* columns rows colors chars-per-pixel */
"64 64 197 2 ",
"   c None",
".  c #040300",
"X  c #090500",
"o  c #060900",
"O  c #0B0B00",
"+  c #130D00",
"@  c #120807",
"#  c #0E1000",
"$  c #131300",
"%  c #1A1100",
"&  c #1C1B00",
"*  c #191B10",
"=  c #211C00",
"-  c #1E2200",
";  c #232400",
":  c #2A2600",
">  c #262900",
",  c #2D2D00",
"<  c #2C260C",
"1  c #3D3E01",
"2  c #323600",
"3  c #2D241F",
"4  c #35331B",
"5  c #373625",
"6  c #433D00",
"7  c #3B4000",
"8  c #454500",
"9  c #454900",
"0  c #4B4D02",
"q  c #4D5100",
"w  c #525003",
"e  c #565800",
"r  c #4B4A15",
"t  c #5F6300",
"y  c #6A6B00",
"u  c #797B0E",
"i  c #5C5B27",
"p  c #585220",
"a  c #474530",
"s  c #555337",
"d  c #5B563D",
"f  c #484526",
"g  c #6B6A23",
"h  c #686526",
"j  c #706E31",
"k  c #777738",
"l  c #4B464D",
"z  c #73714B",
"x  c #757457",
"c  c #74736D",
"v  c #7C7C73",
"b  c #7F7F7B",
"n  c #767673",
"m  c #7F8034",
"M  c #848809",
"N  c #919700",
"B  c #898A13",
"V  c #A6AB09",
"C  c #ABB20C",
"Z  c #B2BA07",
"A  c #ADAE15",
"S  c #AFB515",
"D  c #BABC11",
"F  c #97992D",
"G  c #BDBE2C",
"H  c #B5BE27",
"J  c #A5A933",
"K  c #ACAE39",
"L  c #B5BC37",
"P  c #A9AC29",
"I  c #C4BD2F",
"U  c #C5BE30",
"Y  c #BAC404",
"T  c #BCC21C",
"R  c #BDC32A",
"E  c #C0C600",
"W  c #C6CC03",
"Q  c #C7CA08",
"!  c #C9D303",
"~  c #D3D908",
"^  c #C2CA12",
"/  c #C1C91D",
"(  c #CDD512",
")  c #D6DC17",
"_  c #E0DD02",
"`  c #DDE403",
"'  c #DCE109",
"]  c #DBE519",
"[  c #E2E503",
"{  c #E4EA01",
"}  c #EAEC00",
"|  c #E2E60C",
" . c #E7EA0A",
".. c #EAEA09",
"X. c #EEF203",
"o. c #ECF30D",
"O. c #F3F403",
"+. c #FCF700",
"@. c #F6FC02",
"#. c #FCFE03",
"$. c #F3F50F",
"%. c #F5FC0B",
"&. c #FDFD0B",
"*. c #F9F609",
"=. c #E5EA12",
"-. c #E3E819",
";. c #EFF81A",
":. c #FAF516",
">. c #F5FD13",
",. c #FCFD14",
"<. c #F6F71B",
"1. c #F5FF1A",
"2. c #FBFF1F",
"3. c #C2C52E",
"4. c #C4C824",
"5. c #DDE33A",
"6. c #D9E428",
"7. c #E4E726",
"8. c #EDF525",
"9. c #ECF32C",
"0. c #F2F825",
"q. c #FAFE25",
"w. c #F6FD2D",
"e. c #FDFF2A",
"r. c #F6F627",
"t. c #E2E635",
"y. c #EBF434",
"u. c #EDF63D",
"i. c #EEFA36",
"p. c #F3FA33",
"a. c #FAFF33",
"s. c #F4FB3A",
"d. c #FBFE3E",
"f. c #F7F73F",
"g. c #B7B841",
"h. c #B5B651",
"j. c #9E9A77",
"k. c #BDC347",
"l. c #BDC057",
"z. c #C0C841",
"x. c #D4DB42",
"c. c #D4D94C",
"v. c #CFD251",
"b. c #D2D65B",
"n. c #E2E840",
"m. c #ECF445",
"M. c #EDF449",
"N. c #EFF942",
"B. c #FEFF43",
"V. c #F5FC4A",
"C. c #FDFE4C",
"Z. c #F6FA43",
"A. c #F0ED50",
"S. c #ECF252",
"D. c #EBF058",
"F. c #F5FC50",
"G. c #FDFE54",
"H. c #F7FB5E",
"J. c #E3E856",
"K. c #CAC561",
"L. c #DADF6B",
"P. c #E1DD60",
"I. c #DDE16A",
"U. c #FEFF65",
"Y. c #FEFF6E",
"T. c #F8F66A",
"R. c #FFFF72",
"E. c #FDFC7D",
"W. c gray55",
"Q. c #939391",
"!. c #9F9E94",
"~. c #97948B",
"^. c #A49F8B",
"/. c #AFB08E",
"(. c #A6A593",
"). c #B1AE91",
"_. c #A39DA1",
"`. c #ABADAC",
"'. c #B7B5A6",
"]. c #B4B3B8",
"[. c #C4BEA6",
"{. c #FFFE86",
"}. c #FFFF8D",
"|. c #FFFF97",
" X c #D2D2AB",
".X c #C6C3BE",
"XX c #CED0C2",
"oX c #D0D3CA",
"OX c #DCDFD4",
"+X c #E2DFDA",
"@X c #DDE2DC",
"#X c #E0E1C1",
"$X c #E8E8DA",
"%X c gray93",
"&X c #E7EEE7",
"*X c #F5F6E9",
"=X c #F4F5F7",
/* pixels */
"                                                                                                                                ",
"                                                                                                                                ",
"                                                                                                                                ",
"                                                                                                                                ",
"                                                                                                                                ",
"                                                                                                                                ",
"                                                                                                                                ",
"                                                                                                                                ",
"                                                                                                                                ",
"                                                                                                                                ",
"                                                                                                                                ",
"                                                                                                                                ",
"                                                                                                                                ",
"                                                                                                                                ",
"                                                                                                                                ",
"                                          !.c v v v v Q.                  v c b n b                                             ",
"                                          a . X . X . 5                 x . X . . . *                                           ",
"                                      './.i w 9 w 9 9 i '.].%X      .X).k 0 9 q 9 1 r /.'.                                      ",
"                                      $ $ h.M.p.p.u.F.k.X O $X*X&X=Xl X M m.d.9.s.5.v.$ .                                       ",
"                                      , ; G p.q.w.a.8./ ; > #XXX@XoXs > N ;.&.#.@. .) > > '.OX                                  ",
"                                  X X I.S.V.G.Y.}.E.G.s.i.J.+ X . . J m.0.,.#.#.+.&.<.t.I.- o `.                                ",
"                                  + + x.N.V.Y.{.}.{.Z.e.,.-.% X X O Z 1.%.&.#.#.#.#.&.| n.> X (.                                ",
"                              $ : P.t.C.U.{.|.E.F.9.e.>.@.*.r.7.7.7.o.O.&.#.#.#.#.+.&.` -.T K 9 $ Q.                            ",
"                              X : S.s.C.T.}.}.U.0.,.%.&.#.#.@.#.#.#.#.&.@.#.#.+.#.&.#.{  .W G 6 . W.                            ",
"                              . > D.V.H.R.U.B.q.,.#.#.#.#.#.#.#.#.#.#.#.#.&.&.#.#.@.&.} [ Q I 6 . W.                            ",
"                              . - H.M.U.R.C.<.&.#.#.#.#.#.#.#.#.#.#.#.#.#.%.%.@.#.&.@.{ ..Q U 6 . W.                            ",
"                              o > D.u.C.G.f.2.&.#.#.#.#.#.#.#.&.&.&.#.#.#.@.@.#.%.&.@.} { E 3.8 O Q.                            ",
"                              . ; H.B.a.d.d.>.@.#.#.#.#.#.#.#.&.&.&.#.#.#.#.#.#.&.*.&.} { ! R 1 . W.                            ",
"                              O : A.;.,.e.q.%.@.@.#.#.#.&.&.#.#.#.#.#.#.#.#.#.#.&.,.:.[ { Y H 9 X W.                            ",
"                              . = T.w.,.1.$.&.#.#.#.#.&.&.&.#.#.#.#.#.#.#.#.#.#.&.,.:.=.=.^ z.7 . W.                            ",
"                              4 r K.4.8.,.#.+.#.#.#.&.&.#.#.#.#.#.#.#.#.#.#.#.#.*.:.,._ 7.A F r 5                               ",
"                                  O # 7.,.#.#.#.#.#.&.&.#.#.@.#.#.#.#.#.#.#.#.#.&.{ } W D > O                                   ",
"                                  X O 5.1.#.#.#.#.#.#.#.#.#.%.%.#.#.#.#.#.#.#.&.*.} [ E R ; X                                   ",
"                                  X O c.w.%.@.#.#.&.#.#.#.#.%.%.#.#.#.#.#.#.#.&.*.o.~ ^ L ; .                                   ",
"                                  . o L.m.w.%.&.+.#.#.#.#.&.#.@.@.#.#.#.#.#.&.,.$.=.7.R l.& X                                   ",
"                                     X1 , / w.>.&.#.#.+.+.#.#.#.#.#.#.#.+.@.O...=.Q S 2 >                                       ",
"                                    $X& O g.F.0.%.@.#.#.#.+.#.#.#.O.+.&.&.&.$.=.] 4.K $ O                                       ",
"                                      (.j.g e Z q.#.#.#.#.#.#.#.&.#.#.#.X.{ ' ( V q 0                                           ",
"                                        *Xf X M y.>.@.@.@.#.&.&.#.#.#.&.X.=.) T F O =                                           ",
"                                          ~.x m M Y o.&.#.#.&.&.#.+.+.O.| ) V y g                                               ",
"                                            $Xz O t y.1.%.#.#.#.#.#.O.[ ~ T u O 4                                               ",
"                                              !.d j P Y q.@.#.#.#.X.{ ) V B j s                                                 ",
"                                              %X+X^.X 1 y.,.@.@.{ o.W D y + d                                                   ",
"                                                  _.3 p v.( 1.%.` ] C J h <                                                     ",
"                                                      [.X & 6.] Q 3.8 X                                                         ",
"                                                        % : b.x.L h.                                                            ",
"                                                            + & $ &                                                             ",
"                                                            @ . . X                                                             ",
"                                                                                                                                ",
"                                                                                                                                ",
"                                                                                                                                ",
"                                                                                                                                ",
"                                                                                                                                ",
"                                                                                                                                ",
"                                                                                                                                ",
"                                                                                                                                ",
"                                                                                                                                ",
"                                                                                                                                ",
"                                                                                                                                ",
"                                                                                                                                ",
"                                                                                                                                ",
"                                                                                                                                ",
"                                                                                                                                ",
"                                                                                                                                "
};
