/* XPM */
static char *dcf62d9ee099489eb4c45a8d4580e953jT1olmNeQt0t2osv[] = {
/* columns rows colors chars-per-pixel */
"64 64 231 2 ",
"   c #090909",
".  c #090909",
"X  c #090909",
"o  c #090909",
"O  c #090909",
"+  c #090909",
"@  c #090909",
"#  c #090909",
"$  c #532D1C",
"%  c #855535",
"&  c #4A3124",
"*  c #402A20",
"=  c #5B3522",
"-  c #452D21",
";  c #8A5933",
":  c #7B492A",
">  c #3C261D",
",  c #83522F",
"<  c #734A2D",
"1  c #35332F",
"2  c #6C3B1E",
"3  c #4C2D1D",
"4  c #5C2A10",
"5  c #58280E",
"6  c #4C3328",
"7  c #373A39",
"8  c #AA8655",
"9  c #694329",
"0  c #34383A",
"q  c #744326",
"w  c #B38C57",
"e  c #433B39",
"r  c #6C462C",
"t  c #A77A50",
"y  c #473930",
"u  c #A1734E",
"i  c #541D03",
"p  c #B68C51",
"a  c #362823",
"s  c #7D512F",
"d  c #5A3C2D",
"f  c #462A1B",
"g  c #814E2B",
"h  c #B98F54",
"j  c #3A3C3C",
"k  c #A68151",
"l  c #3D3835",
"z  c #452517",
"x  c #55250A",
"c  c #4D291D",
"v  c #573221",
"b  c #9C6F48",
"n  c #46332B",
"m  c #4C372B",
"M  c #2C3233",
"N  c #AC814F",
"B  c #5D2F17",
"V  c #323438",
"C  c #AD8455",
"Z  c #5F3724",
"A  c #B58D5A",
"S  c #393B3B",
"D  c #916742",
"F  c #7D4D34",
"G  c #704020",
"H  c #533529",
"J  c #A37C51",
"K  c #502713",
"L  c #542105",
"P  c #8E5B38",
"I  c #32241E",
"U  c #663B20",
"Y  c #694029",
"T  c #66361C",
"R  c #966B47",
"E  c #623C2D",
"W  c #402E25",
"Q  c #6D4A31",
"!  c #BF9256",
"~  c #BA905C",
"^  c #51473C",
"/  c #9A633B",
"(  c #7D5334",
")  c #885E37",
"_  c #7A4D2B",
"`  c #8A5331",
"'  c #A16D43",
"]  c #A87442",
"[  c #51301E",
"{  c #603219",
"}  c #644831",
"|  c #B68859",
" . c #453E3A",
".. c #A78458",
"X. c #986B3F",
"o. c #B0885A",
"O. c #8C613B",
"+. c #6F5136",
"@. c #7C5737",
"#. c #AB7E4D",
"$. c #724626",
"%. c #744D2E",
"&. c #A4784E",
"*. c #A17749",
"=. c #33373F",
"-. c #4C1901",
";. c #894C30",
":. c #B7844C",
">. c #A07345",
",. c #854F36",
"<. c #4A3C33",
"1. c #AE7D53",
"2. c #BF945F",
"3. c #A97B4A",
"4. c #84593D",
"5. c #614028",
"6. c #411F10",
"7. c #49423A",
"8. c #B2834A",
"9. c #BD8C51",
"0. c #5E432D",
"q. c #8B593A",
"w. c #B28752",
"e. c #8C6B4A",
"r. c #AA8255",
"t. c #623A26",
"y. c #553927",
"u. c #846043",
"i. c #946F4C",
"p. c #A8764B",
"a. c #262A2B",
"s. c #733C27",
"d. c #835A33",
"f. c #7E5B3F",
"g. c #794124",
"h. c #B8894D",
"j. c #03040B",
"k. c #B18156",
"l. c #523B2E",
"z. c #8A6345",
"x. c #504135",
"c. c #4A200D",
"v. c #734633",
"b. c #70442D",
"n. c #B79061",
"m. c #502317",
"M. c #1C262C",
"N. c #904C2B",
"B. c #5E4035",
"V. c #AB6B56",
"C. c #382C26",
"Z. c #94653E",
"A. c #455D5E",
"S. c #92613F",
"D. c #A98959",
"F. c #784F35",
"G. c #8F5438",
"H. c #A97E54",
"J. c #9E7A50",
"K. c #3D3E3C",
"L. c #413935",
"P. c #A26A3D",
"I. c #965D39",
"U. c #A08058",
"Y. c #3B332E",
"T. c #3A362F",
"R. c #A25E38",
"E. c #816D4E",
"W. c #312B25",
"Q. c #B89258",
"!. c #624F3B",
"~. c #7B4834",
"^. c #895136",
"/. c #96563A",
"(. c #B88B5A",
"). c #9A744E",
"_. c #354143",
"`. c #2F2F2C",
"'. c #5CC9E4",
"]. c #42413C",
"[. c #AD8D58",
"{. c #75543C",
"}. c #BD995D",
"|. c #947A53",
" X c #84462D",
".X c #130D0D",
"XX c #CC6B29",
"oX c #313D41",
"OX c #3BB1D2",
"+X c #50A8BE",
"@X c #67D2E5",
"#X c #342C3D",
"$X c #1C1E20",
"%X c #8E6234",
"&X c #9C5C4B",
"*X c #905E3E",
"=X c #B79465",
"-X c #7BE0E7",
";X c #91E0E7",
":X c #11151A",
">X c #81D7E2",
",X c #2F4C51",
"<X c #4078D5",
"1X c #CA9756",
"2X c #2491D4",
"3X c #53B1C2",
"4X c #88D4D9",
"5X c #362C44",
"6X c #87734F",
"7X c #AD6530",
"8X c #77664C",
"9X c #426364",
"0X c #4A93A1",
"qX c #5DBFC3",
"wX c #425AC7",
"eX c #64A5A7",
"rX c #5B9AAB",
"tX c #708286",
"yX c #93B6CD",
"uX c #868F8A",
"iX c #5688CC",
"pX c #58C0E7",
"aX c #2950BC",
"sX c #23A5A2",
"dX c #90A5A2",
"fX c #C84F0D",
"gX c #517279",
"hX c #7EA3AA",
"jX c #617A7E",
"kX c #879BDD",
"lX c #AF774E",
/* pixels */
"@ X X . . X X                             o o o o V M M M M M M M M M M M M M 0 0 o o o o o 7 7 7 o               @ @ @ X   . X ",
"X X . . X X X X                     . . K.K.j o a.,X9XA.A.A.A.A.A.A.A.A.A.9X,X$X0 j j j o o o 7 7 o                   X X   . . ",
"  X . X X X X           O O         . j a.M.M.1 U.D.[.w w w w A w w w w A [.[.U.+ M.a.a.o 7 o o                     . X .     . ",
"  X X X   X .       .   O O O   @ S # a.8X6X6XJ.h :.8.:.:.:.:.8.8.:.:.8.3.8.h.h |.E.6XE.1 #   o                       . X .     ",
". . . .                 O O     0 M a.W.[.Q.h C *.N D d.R R >.:.1.' u R s ) H.N w.! 2.[.`.a.M S @                   .   .       ",
".                           . j M.^ D...w w #._ U { b.Y 3 v Y z.( Z Z & %.< U $.$.*.w w k ..<.M.0 @                 .   . .     ",
"    .                     j j :XE.[.w ~ N %Xs _ t.Y Z y.C.a * I I * - W.n } 9 Z $.G d.w ~ h 8 E.a.M .                 . . . .   ",
"                        X 0 a.8Xo.h A #.g 2 ~.% ( H W W m F.,.d W R R 0.W n > Q 4.4.q q *.w h p U.a.M @             . .     .   ",
"        . .           @ o M.E.Q.h C O.T  X~.- & n m 6 l.0.i./ E W o.k.9 n d l.n n W b./.T < k A ~ |.M.0 X       o o o     .     ",
"                      j V `.D.h w.O.v F &XE * 6 & z.&.u.x.J.k.Y W o.k.r m t H.d & W H v.&X$ Y >.| Q.K.M.].o     o o o .         ",
"                    j 0 `.U.w p Z.F t.F.m I Q r.H.w.~ D m ).| 9 - C | F.y.H.(.r.r.f.> W l.& : , t Q.D.].$XK..   o o .   .   .   ",
"                    0 a.|.h p >.G t {.I a f.r.N t $.G { c.).| 9 - C 3.q 4 2 G : | o.i.m a n J G , C }.|.^ M @ . o o o .   . X X ",
"                    $XE.! p 3.: _ t d a 4.p.t 2 4 L L x c.R p.Y - t / 2 m.L -.i T ) J z.W n J.b G Z.A 2.U.M.j .   .   .   . . . ",
"                @ # :XE.! p g _ J ) > - D ; _ x x 4 r +.& I.R.r > ^./.E 0.i.4 5 -.T _ D 5.> & o.Z.G #.2.|.M.#       .           ",
"              . S V 7.|.h w._ O.} - I 5.u 5 L i L Z.o.z.* d t.& I & v - 3 R C &.5 x -.% 4.> a } u.s b Q...T.M j             .   ",
"      .         7 + o.h C s 9 e.6 * - $ 5 -.G u b H.1., * & = * I H = - & ; r.r.D S.5 K c $ 3 $X!.R U X.! 8 l O       . . . . . ",
"                7 + k 9.N < Q l.a d *X~.z % b n.C R ` F - F /.t.> ,./.E & q.; R o.k.u v $ q.^.W C.5.9 X.! k l O .     .   .   X ",
"                7 + k 9.8.O.%.y a d / F f @.4.F.b.q q Y f F /.Z > ~.G.E - q G q : s F $ $ /.G.- * F q %X! N L.O X       . .   X ",
"              . 7 + J h.#.G ~.y W.E / Y 3 i i i L L L c.> ,.I.t.> F /.E > -.-.-.-.-.-.6.6 G.G.- * ,.s.O.! 3.l O X           . . ",
"              . 7 + ) / ;  X Xy W.E I.Z & 5 4 x 5 4 4 z > ,.I.t.> O./ Z z 4 4 x 5 5 c.z H / G.6 n F g.g.` ; T.O . .   . X X   . ",
"            .     0 C ] % ; P <.W.0.u r d b >.< D d.Q 0.* ,./ t.* U.p.v 0.u u , < f.!.* y.] G.6 m F I.P ; o.l   . X       .   . ",
"          .       o 8 9.(.9.2.!.I } | %.[ *Xo.%.b g 5 e.m 4.&.Y * U.| = d p.t % T % f.^ d lXG.& x.A ! ! :.P.T.  o . . .     . . ",
"            O X   + k h.3.] 3.^ I +.2.F c ^.| r b g B f.z q.w < * U.(.t.m.p.t % { % O.& 5.k.' m y *.*.#.:.R.Y.S . o . .   .     ",
"            X X # + k 9.@.9 r l a +.2.F c ,.w r u g { u.z R A %.* U.~ v.m.&.t % { % *X3 9 w.' m n 9 G d.:.R.Y.S                 ",
"          . . O j 1 / 9.; v.< o W.+.~ s c ,.A r u g { u.z ).n.( * ..~ v.m.&.t % { ; *X3 9 w./ m L.!.%.) :.R.Y.#         . .     ",
"            O O j 1 >.9.#.%.e.].a +.~ ( 3 ,.A r u g B u.z i.n.@.- ..~ v.m.&.t % { ; S.3 9 | p.m <.|.s >.:.R.Y.7           . .   ",
"            O O # + N h.#.Q e.].a +.~ ( 3 ^.A r u g B u.z R n.@.- ..~ v.m.&.t % { ; S.3 9 | 1.m y ).< #.h.&.Y.              .   ",
"            X O # + N 9.*.r r @ a Q }.( c ^.(.9 u _ { z.f i.n.@.- ..~ b.m.&.t 4.T q.S.[ 9 N ; m y @.$.#.p ..1                   ",
"              X # + 3.] X.: Y @ C.} 2.( c ^.A r b : 5 F.6.).n.Q - ..~ b.K &.t 4.T g P K 9 3.g n y $.q X.| J 1                   ",
"              O j M {.P , P ) K.a Q 2.( c ,.1.r u : 5 F.6.).n.9 - ..~ b.m.&.H.q.4 G : 6.r 3.% n y O.; % P @.`.S                 ",
"            O O S V e.w J.w n.7.a } (.s f ,.P.s.% 2 5 F.6.).3.Z n ..~ b.m.*.X._ 4 G : c.r | ' n <.w 2.J.).e.1 O X               ",
"              X # + 8 h h w.8 7.a Q (.s f ,.P.2 { x 4 %.6.u p.Z 6 ..| T m.>., 2 B : : c.r (.' m y 8 A A Q.8 1 O X               ",
"              X # + k p N g < L.C.+.~ F.3 ` I.2 q.T 5 ( 6.).p.U 6 ..N U $ b ; G B g g.c.< w #.} n < : N ! ..1 O X             . ",
"        .     X # + k h.) q b.e C.+.k.%.[ v U 5 t.5 K Z > ).p.Y m r.#.< [ = U B K Z B z 5.C #.} n Y $.O.h 8 1 O X           .   ",
"              X # + k p N < < 7.C.r / _ & > { v f 3 f & y i.u E n ..t E ^ m 0.y.l.m l.m d 3.' l.y d.$.R ! 8 1 O X         .   @ ",
"          .     # + k p p %.@.7.C.5.` Y E u p.u R R R i.:X.X.Xj.j..X$X^ } b b D z.z.D {.y.P : l.y *.9 i.! 8 1 O X         X   @ ",
"        . .     # + k p >.} +. .C.3 $ c $ O.1.t 1.1.1.u .Xj.j.j.j.j.$XuXI R k.t t &.1.u.3 B B n y Z.9 e.h.k 1 O @       .     . ",
"      . .       S + k h X.q b. .- t.V.~.K : % , , , , q..Xj.j.j.j..X.X .I %.; % % % ; < & G.G.H y q q : P.J + S .               ",
"    . .         # + k p N : s  .- Y V.F K $.% , , , , s c $ v $ K c [ v t.% , , , , % r [ V.V.H y s q g 2.#.1 S           .     ",
"                # + k 8.; ( =X7.* E V.v.z K x x x x x K Z q  XU $ G q T c.5 4 5 4 4 4 $ v V.&X& <.A O.C d.P.T.#                 ",
"                O + r.h.%X_ +.e W E V.v.W - & - f f [ * - : ;.t.f F.: $ d y.f f f & 3 f v V.&X& y z.+.@.N ' 1 S                 ",
"                j 1 %Xh.N g < L.W E V.v.* {.i.} E.y.z.x.W Q F d - F.v.C.l.i.e.} u.y.8X0.v V.&X6 y @.s X.h N T.S   .   .     .   ",
"  .             # 1 >.h.8._ F.7.W 6 B.H * i.D.r =X( G e.* * f * * f - * d J ..( o.B e.+.6 E E n y f., / p r.T.O                 ",
"                # + k p 8.%.f.^ C.6 H 6 & O.k r n.s T 4.W u.P 5.W e.b = H J J.$.k 5 ` +.m y.= n <.D.%.P h C T.                  ",
"        .       # + J h.N s r e C.0.J F.c S.k r =Xs T f.<.).] 5.W D.w.= H J J.$.r.4 ` 5.d Z.P 6 <.D.%.P 9.&.Y.O   .             ",
". .   .         j 1 P R.I.G Y l C.0.C F.z S.J r =Xs { 4.f R 1.E W D.o.t.y.J J.$.H.4 ` 5.d ' S.H y _ _ g , P Y.S       .         ",
"              . j o Y $.< $.< e C.} (.F.z P Z.9 n.s { 4.[ J | 5.- 8 8 9 c J b G H.4 ` U = A Z.H y U 2 U U t.Y.S                 ",
"              . # K.X.] >.>.*.^ a 0.2.D z q./ U H., B %.$ k ~ 5.- 8 8 < m.b ; 2 C 4 ` U = A *.H <.b ] ' ' R e o                 ",
"              . 7 ].8 h p p w.^ a 0.2.O.z q./ U t % 4 T K J A Q - 8 8 < m.b ; 2 t 5 g.{ Z n.n.y.<.3.Q.8.8.o. .o X               ",
"              X 7 ].[.}.}.}.h ^ I 0.2.) z % I.U &., 4 2 K J.A Q & 8 8 < K b ) 2 u 4 g.B = r.*.H x.] Q.Q.Q.8 L.7 X               ",
"              . S X k p h.p w.^ a 0.A @.z % I.U t % 4 2 K J.A Q & 8 8 %.K D % T R x s.4 B &.S.6 x.] p p h 8 L.7 X               ",
"                j + D ] ' ' p.^ a 0.C F.H T T K T B x 5 v *.C Q & D.*.9 v = B 4 B 4 B 5 U k.S.& x.>.] ] ] >. .7 X X             ",
"                # + @.) d.d.) 7.a } ' s.} t.{ $ c c [ 3 3 b #.Q & b ; = 3 d = y.6 6 6 & v ' q.6 <.@.( ( % @.1 7               . ",
"                O + {.d.) ) O.7.a 0./ s.d z.H.R u.z.z.u.3 R P.= - ` ` v d R R e.f.f.f.{.[ G.^.6 7.D D D d.{.`.                  ",
"                O + Q ` 9.1X! x.a = N.s.6.% b b &.u k.R 3 : /.Z > t.U f = , t k.1.1.k.% $ ;.;.6 ^ ! 1X9.; s W.            @   . ",
"                O + f.I./ P.p.^ > = N.s.6.q , : S.` g : c g.N.t.a H = f = , ; ; q.; P F v ;.;.6 x.7X7XP , ( W.7 X X @ 0 . 0 X X ",
"    o           S + D ] %Xd.% <.* = N.s.c.2 q g.g.g.g.s.c : N.Z * ,.^.= $ q 2 2 2 2 2 2 v ;.;.6 x.4.4.{.R H.1 o 7 o V ]./ r 0 @ ",
"                # + o.1XJ %.F y * = N.s.m.x L L L L L x z q N.Z * ;.;.= 6.i L L L i L -.$ ^.;.6 x.%.s N w.r.1 0 7.^ 7.XXXXR.l   ",
"              . # + o.1X! ` F <.> v  Xs.i i i i i i i i c.m.;.= z ;.;.{ -.i i i i i i i 5 g.g.3 x.F , w.9.C 1 7 o !.XXfXXXK.0 o ",
"              @ X `.) X.X.: ~.n > 3 $ [ $ $ $ $ $ $ [ $ 3 f = v 3 Y 9 Z $ [ [ $ $ [ [ 3 [ 3 3 m l.v.~.*X/ ) W.l @ P.XX7X!.+.o . ",
"            . 0 oXoXB.B.d l.B.V hX;X4X4X4X;X;X-X@X@X'.@XpX'.kXyX;X>X>X@X>X>X-X-X-X@X'.@X'.pX'.yXe B.B.d B.d 0 ,XN.XXP.^  .{.0 . ",
"o           X :X0XqXuXtXoXtX9XeX+X3X3X+XqX'.OXOX2X<XwXiXaX<XwXiXOXOXOX+X+XrX3X'.OX2X2X<X<XaX+X+X0XrX,XjXgXdXeXsXN.N.K.0 o V o o ",
"o o         @ V oX_.# # V K.V 0 V V V V =.=.=.=.#X5X5X#X#X5XV =.=.0 =.=.=.=.V =.=.=.=.#X#X#X=.oX_._.0 _.oX_._._.o =.  @ . . o o ",
"o o           j . l o l @ . @ . @ @ e e e e e e  . . . . . . .e e e e e e e e e L.L.e e L.e L.l l l @ @ @ . l L.@ @ @ S o o o o "
};
